<svg width="124" height="116" viewBox="0 0 124 116" fill="none" xmlns="http://www.w3.org/2000/svg">
<g clipPath="url(#clip0_690_2)">
<path d="M37.1482 0L61.3528 36.6465H62.3883L86.8518 0H122.706L82.7098 58L124 116H87.2401L62.3883 78.957H61.3528L36.501 116H0L41.096 58L1.03549 0H37.1482Z" fill="url(#paint0_linear_690_2)"/>
<path d="M39.7982 4L64.0028 40.6465H65.0382L89.5017 4L120.5 3L82.5001 58L123.5 116H87L62.5001 79H61.0001L36.5 116H5.00012L43.746 62L3.68542 4H39.7982Z" fill="white" fillOpacity="0.15"/>
<path d="M42.9482 8L67.1528 44.6465H68.1883L92.6517 8H117.5L82.4999 58L124 116H87.4999L62.4999 79H61.4999L36.4999 116H10.5L46.896 66L6.83545 8H42.9482Z" fill="white" fillOpacity="0.15"/>
<path d="M46.1483 13L70.3529 49.6465H71.3883L95.8518 13H113.5L82.5001 58L124 116H87.5001L62.5001 79H61.5001L36.5 116H17.5001L50.0961 71L10.0355 13H46.1483Z" fill="white" fillOpacity="0.15"/>
</g>
<defs>
<linearGradient id="paint0_linear_690_2" x1="0" y1="0" x2="145.359" y2="74.1035" gradientUnits="userSpaceOnUse">
<stop stopColor="#FF5733"/>
<stop offset="0.518161" stopColor="#FF5400"/>
<stop offset="1" stopColor="#FF0054"/>
</linearGradient>
<clipPath id="clip0_690_2">
<rect width="124" height="116" fill="white"/>
</clipPath>
</defs>
</svg>
