<svg width="14" height="12" viewBox="0 0 14 12" fill="none" xmlns="http://www.w3.org/2000/svg">
<g clip-path="url(#clip0_127_959)">
<path fill-rule="evenodd" clip-rule="evenodd" d="M0.599609 6C0.599609 5.44772 1.04732 5 1.59961 5H12.5996C13.1519 5 13.5996 5.44772 13.5996 6C13.5996 6.55228 13.1519 7 12.5996 7H1.59961C1.04732 7 0.599609 6.55228 0.599609 6Z" fill="black"/>
<path fill-rule="evenodd" clip-rule="evenodd" d="M7.3925 0.792893C7.78303 0.402369 8.41619 0.402369 8.80672 0.792893L13.3067 5.29289C13.6972 5.68342 13.6972 6.31658 13.3067 6.70711L8.80672 11.2071C8.41619 11.5976 7.78303 11.5976 7.3925 11.2071C7.00198 10.8166 7.00198 10.1834 7.3925 9.79289L11.1854 6L7.3925 2.20711C7.00198 1.81658 7.00198 1.18342 7.3925 0.792893Z" fill="black"/>
</g>
<defs>
<clipPath id="clip0_127_959">
<rect width="13" height="11" fill="white" transform="translate(0.599609 0.5)"/>
</clipPath>
</defs>
</svg>
