<svg width="324" height="372" viewBox="0 0 324 372" fill="none" xmlns="http://www.w3.org/2000/svg">
<rect width="181.476" height="181.476" transform="matrix(0.866025 -0.5 0.866025 0.5 5 275.761)" stroke="url(#paint0_linear_375_160)" strokeWidth="10" strokeLinejoin="bevel"/>
<rect width="125.61" height="125.61" transform="matrix(0.866025 -0.5 2.20305e-08 1 161.862 184.203)" fill="url(#paint1_linear_375_160)"/>
<rect width="125.61" height="125.61" transform="matrix(0.866025 0.5 -2.20305e-08 1 53.0803 121.398)" fill="url(#paint2_linear_375_160)"/>
<g style="mix-blend-mode:darken">
<rect width="125.61" height="125.61" transform="matrix(0.866025 -0.5 0.866025 0.5 53.0803 121.398)" fill="url(#paint3_linear_375_160)"/>
</g>
<g style="mix-blend-mode:screen" opacity="0.4">
<rect width="125.61" height="125.61" transform="matrix(0.866025 -0.5 0.866025 0.5 53.4866 167.794)" fill="url(#paint4_linear_375_160)"/>
</g>
<g style="mix-blend-mode:screen" opacity="0.4">
<rect width="125.61" height="125.61" transform="matrix(0.866025 -0.5 0.866025 0.5 53.4866 212.937)" fill="url(#paint5_linear_375_160)"/>
</g>
<g style="mix-blend-mode:screen" opacity="0.4">
<rect width="125.61" height="125.61" transform="matrix(0.866025 -0.5 0.866025 0.5 54 126.805)" fill="url(#paint6_linear_375_160)"/>
</g>
<rect width="181.408" height="180.976" transform="matrix(0.866025 -0.5 0.866025 0.5 5 93.7042)" fill="black" fillOpacity="0.15" stroke="url(#paint7_linear_375_160)" strokeWidth="10" strokeLinejoin="bevel"/>
<rect width="180.976" height="182.278" transform="matrix(0.866025 -0.5 2.20305e-08 1 162.596 184.192)" fill="#612702" fillOpacity="0.5" stroke="url(#paint8_linear_375_160)" strokeWidth="10" strokeLinejoin="bevel"/>
<path d="M5 97.7869C5 96.13 6.1632 95.4584 7.59808 96.2869L158.266 183.275C159.701 184.103 160.864 186.118 160.864 187.775L160.864 362.6C160.864 364.257 159.701 364.928 158.266 364.1L7.59807 277.112C6.16319 276.283 5 274.269 5 272.612L5 97.7869Z" fill="#E85D04" fillOpacity="0.28" stroke="url(#paint9_linear_375_160)" strokeWidth="10" strokeLinejoin="round"/>
<defs>
<linearGradient id="paint0_linear_375_160" x1="90.7379" y1="0" x2="90.7379" y2="181.476" gradientUnits="userSpaceOnUse">
<stop stopColor="#CB3068"/>
<stop offset="1" stopColor="#CC5C1D"/>
</linearGradient>
<linearGradient id="paint1_linear_375_160" x1="149.206" y1="65.8883" x2="16.4272" y2="160.544" gradientUnits="userSpaceOnUse">
<stop stopColor="#FF7C32"/>
<stop offset="1" stopColor="#CB3068"/>
</linearGradient>
<linearGradient id="paint2_linear_375_160" x1="150.941" y1="-35.5035" x2="-61.2105" y2="-22.8085" gradientUnits="userSpaceOnUse">
<stop stopColor="#E7702E"/>
<stop offset="1" stopColor="#CB3068"/>
</linearGradient>
<linearGradient id="paint3_linear_375_160" x1="99.9331" y1="99.9331" x2="91.2464" y2="-48.755" gradientUnits="userSpaceOnUse">
<stop stopColor="#FF7C32"/>
<stop offset="1" stopColor="#CB3068"/>
</linearGradient>
<linearGradient id="paint4_linear_375_160" x1="99.9331" y1="99.9331" x2="91.2464" y2="-48.755" gradientUnits="userSpaceOnUse">
<stop stopColor="#FF7C32"/>
<stop offset="1" stopColor="#CB3068"/>
</linearGradient>
<linearGradient id="paint5_linear_375_160" x1="99.9331" y1="99.9331" x2="91.2464" y2="-48.755" gradientUnits="userSpaceOnUse">
<stop stopColor="#FF7C32"/>
<stop offset="1" stopColor="#CB3068"/>
</linearGradient>
<linearGradient id="paint6_linear_375_160" x1="99.9331" y1="99.9331" x2="91.2464" y2="-48.755" gradientUnits="userSpaceOnUse">
<stop stopColor="#FF7C32"/>
<stop offset="1" stopColor="#CB3068"/>
</linearGradient>
<linearGradient id="paint7_linear_375_160" x1="90.7042" y1="0" x2="90.7042" y2="180.976" gradientUnits="userSpaceOnUse">
<stop stopColor="#CB3068"/>
<stop offset="1" stopColor="#CC5C1D"/>
</linearGradient>
<linearGradient id="paint8_linear_375_160" x1="90.4879" y1="0" x2="90.4879" y2="182.278" gradientUnits="userSpaceOnUse">
<stop stopColor="#CB3068"/>
<stop offset="1" stopColor="#CC5C1D"/>
</linearGradient>
<linearGradient id="paint9_linear_375_160" x1="82.9319" y1="139.781" x2="4.63239" y2="275.4" gradientUnits="userSpaceOnUse">
<stop stopColor="#CB3068"/>
<stop offset="1" stopColor="#CC5C1D"/>
</linearGradient>
</defs>
</svg>
