<svg width="1200" height="772" viewBox="0 0 1200 772" fill="none" xmlns="http://www.w3.org/2000/svg">
<rect width="1200" height="772" rx="24" fill="black"/>
<path d="M324.699 207V160.92H339.387C339.771 160.92 340.528 160.931 341.659 160.952C342.811 160.973 343.92 161.048 344.987 161.176C348.635 161.645 351.717 162.947 354.235 165.08C356.773 167.192 358.693 169.891 359.995 173.176C361.296 176.461 361.947 180.056 361.947 183.96C361.947 187.864 361.296 191.459 359.995 194.744C358.693 198.029 356.773 200.739 354.235 202.872C351.717 204.984 348.635 206.275 344.987 206.744C343.941 206.872 342.843 206.947 341.691 206.968C340.539 206.989 339.771 207 339.387 207H324.699ZM332.539 199.736H339.387C340.027 199.736 340.837 199.715 341.819 199.672C342.821 199.629 343.707 199.533 344.475 199.384C346.651 198.979 348.421 198.008 349.787 196.472C351.152 194.936 352.155 193.069 352.795 190.872C353.456 188.675 353.787 186.371 353.787 183.96C353.787 181.464 353.456 179.117 352.795 176.92C352.133 174.723 351.109 172.877 349.723 171.384C348.357 169.891 346.608 168.941 344.475 168.536C343.707 168.365 342.821 168.269 341.819 168.248C340.837 168.205 340.027 168.184 339.387 168.184H332.539V199.736ZM379.175 207.96C376.679 207.96 374.567 207.491 372.839 206.552C371.111 205.592 369.799 204.323 368.903 202.744C368.029 201.165 367.591 199.427 367.591 197.528C367.591 195.864 367.869 194.371 368.423 193.048C368.978 191.704 369.831 190.552 370.983 189.592C372.135 188.611 373.629 187.811 375.463 187.192C376.85 186.744 378.471 186.339 380.327 185.976C382.205 185.613 384.231 185.283 386.407 184.984C388.605 184.664 390.898 184.323 393.287 183.96L390.535 185.528C390.557 183.139 390.023 181.379 388.935 180.248C387.847 179.117 386.013 178.552 383.431 178.552C381.874 178.552 380.37 178.915 378.919 179.64C377.469 180.365 376.455 181.613 375.879 183.384L368.839 181.176C369.693 178.253 371.314 175.907 373.703 174.136C376.114 172.365 379.357 171.48 383.431 171.48C386.503 171.48 389.202 171.981 391.527 172.984C393.874 173.987 395.613 175.629 396.743 177.912C397.362 179.128 397.735 180.376 397.863 181.656C397.991 182.915 398.055 184.291 398.055 185.784V207H391.303V199.512L392.423 200.728C390.866 203.224 389.042 205.059 386.951 206.232C384.882 207.384 382.29 207.96 379.175 207.96ZM380.711 201.816C382.461 201.816 383.954 201.507 385.191 200.888C386.429 200.269 387.41 199.512 388.135 198.616C388.882 197.72 389.383 196.877 389.639 196.088C390.045 195.107 390.269 193.987 390.311 192.728C390.375 191.448 390.407 190.413 390.407 189.624L392.775 190.328C390.45 190.691 388.455 191.011 386.791 191.288C385.127 191.565 383.698 191.832 382.503 192.088C381.309 192.323 380.253 192.589 379.335 192.888C378.439 193.208 377.682 193.581 377.063 194.008C376.445 194.435 375.965 194.925 375.623 195.48C375.303 196.035 375.143 196.685 375.143 197.432C375.143 198.285 375.357 199.043 375.783 199.704C376.21 200.344 376.829 200.856 377.639 201.24C378.471 201.624 379.495 201.816 380.711 201.816ZM419.73 207.96C415.464 207.96 411.997 207 409.33 205.08C406.664 203.16 405.042 200.461 404.466 196.984L412.338 195.768C412.744 197.475 413.64 198.819 415.026 199.8C416.413 200.781 418.162 201.272 420.274 201.272C422.13 201.272 423.56 200.909 424.562 200.184C425.586 199.437 426.098 198.424 426.098 197.144C426.098 196.355 425.906 195.725 425.522 195.256C425.16 194.765 424.349 194.296 423.09 193.848C421.832 193.4 419.901 192.835 417.298 192.152C414.397 191.384 412.093 190.563 410.386 189.688C408.68 188.792 407.453 187.736 406.706 186.52C405.96 185.304 405.586 183.832 405.586 182.104C405.586 179.949 406.152 178.072 407.282 176.472C408.413 174.872 409.992 173.645 412.018 172.792C414.045 171.917 416.434 171.48 419.186 171.48C421.874 171.48 424.253 171.896 426.322 172.728C428.413 173.56 430.098 174.744 431.378 176.28C432.658 177.816 433.448 179.619 433.746 181.688L425.874 183.096C425.682 181.624 425.01 180.461 423.858 179.608C422.728 178.755 421.213 178.275 419.314 178.168C417.501 178.061 416.04 178.339 414.93 179C413.821 179.64 413.266 180.547 413.266 181.72C413.266 182.381 413.49 182.947 413.938 183.416C414.386 183.885 415.282 184.355 416.626 184.824C417.992 185.293 420.018 185.869 422.706 186.552C425.458 187.256 427.656 188.067 429.298 188.984C430.962 189.88 432.157 190.957 432.882 192.216C433.629 193.475 434.002 195 434.002 196.792C434.002 200.269 432.733 203 430.194 204.984C427.677 206.968 424.189 207.96 419.73 207.96ZM464.915 207V190.36C464.915 189.272 464.841 188.067 464.691 186.744C464.542 185.421 464.19 184.152 463.635 182.936C463.102 181.699 462.291 180.685 461.203 179.896C460.137 179.107 458.686 178.712 456.851 178.712C455.87 178.712 454.899 178.872 453.939 179.192C452.979 179.512 452.105 180.067 451.315 180.856C450.547 181.624 449.929 182.691 449.459 184.056C448.99 185.4 448.755 187.128 448.755 189.24L444.179 187.288C444.179 184.344 444.745 181.677 445.875 179.288C447.027 176.899 448.713 175 450.931 173.592C453.15 172.163 455.881 171.448 459.123 171.448C461.683 171.448 463.795 171.875 465.459 172.728C467.123 173.581 468.446 174.669 469.427 175.992C470.409 177.315 471.134 178.723 471.603 180.216C472.073 181.709 472.371 183.128 472.499 184.472C472.649 185.795 472.723 186.872 472.723 187.704V207H464.915ZM440.947 207V160.92H447.827V185.176H448.755V207H440.947ZM497.682 207.96C494.311 207.96 491.484 207.16 489.202 205.56C486.919 203.96 485.202 201.784 484.05 199.032C482.898 196.259 482.322 193.155 482.322 189.72C482.322 186.243 482.898 183.128 484.05 180.376C485.202 177.624 486.887 175.459 489.106 173.88C491.346 172.28 494.108 171.48 497.394 171.48C500.658 171.48 503.484 172.28 505.874 173.88C508.284 175.459 510.151 177.624 511.474 180.376C512.796 183.107 513.458 186.221 513.458 189.72C513.458 193.176 512.807 196.28 511.506 199.032C510.204 201.784 508.37 203.96 506.002 205.56C503.634 207.16 500.86 207.96 497.682 207.96ZM481.01 207V160.92H488.786V182.744H487.826V207H481.01ZM496.498 201.048C498.503 201.048 500.156 200.547 501.458 199.544C502.759 198.541 503.719 197.187 504.338 195.48C504.978 193.752 505.298 191.832 505.298 189.72C505.298 187.629 504.978 185.731 504.338 184.024C503.698 182.296 502.706 180.931 501.362 179.928C500.018 178.904 498.311 178.392 496.242 178.392C494.279 178.392 492.679 178.872 491.442 179.832C490.204 180.771 489.287 182.093 488.69 183.8C488.114 185.485 487.826 187.459 487.826 189.72C487.826 191.96 488.114 193.933 488.69 195.64C489.287 197.347 490.215 198.68 491.474 199.64C492.754 200.579 494.428 201.048 496.498 201.048ZM535.775 207.96C532.319 207.96 529.301 207.181 526.719 205.624C524.138 204.067 522.133 201.923 520.703 199.192C519.295 196.44 518.591 193.283 518.591 189.72C518.591 186.093 519.317 182.915 520.767 180.184C522.218 177.453 524.234 175.32 526.815 173.784C529.397 172.248 532.383 171.48 535.775 171.48C539.253 171.48 542.282 172.259 544.863 173.816C547.445 175.373 549.45 177.528 550.879 180.28C552.309 183.011 553.023 186.157 553.023 189.72C553.023 193.304 552.298 196.472 550.847 199.224C549.418 201.955 547.413 204.099 544.831 205.656C542.25 207.192 539.231 207.96 535.775 207.96ZM535.775 200.728C538.847 200.728 541.13 199.704 542.623 197.656C544.117 195.608 544.863 192.963 544.863 189.72C544.863 186.371 544.106 183.704 542.591 181.72C541.077 179.715 538.805 178.712 535.775 178.712C533.706 178.712 531.999 179.181 530.655 180.12C529.333 181.037 528.351 182.328 527.711 183.992C527.071 185.635 526.751 187.544 526.751 189.72C526.751 193.069 527.509 195.747 529.023 197.752C530.559 199.736 532.81 200.728 535.775 200.728ZM569.738 207.96C567.242 207.96 565.13 207.491 563.402 206.552C561.674 205.592 560.362 204.323 559.466 202.744C558.591 201.165 558.154 199.427 558.154 197.528C558.154 195.864 558.431 194.371 558.986 193.048C559.54 191.704 560.394 190.552 561.546 189.592C562.698 188.611 564.191 187.811 566.026 187.192C567.412 186.744 569.034 186.339 570.89 185.976C572.767 185.613 574.794 185.283 576.97 184.984C579.167 184.664 581.46 184.323 583.85 183.96L581.098 185.528C581.119 183.139 580.586 181.379 579.498 180.248C578.41 179.117 576.575 178.552 573.994 178.552C572.436 178.552 570.932 178.915 569.482 179.64C568.031 180.365 567.018 181.613 566.442 183.384L559.402 181.176C560.255 178.253 561.876 175.907 564.266 174.136C566.676 172.365 569.919 171.48 573.994 171.48C577.066 171.48 579.764 171.981 582.09 172.984C584.436 173.987 586.175 175.629 587.306 177.912C587.924 179.128 588.298 180.376 588.426 181.656C588.554 182.915 588.618 184.291 588.618 185.784V207H581.866V199.512L582.986 200.728C581.428 203.224 579.604 205.059 577.514 206.232C575.444 207.384 572.852 207.96 569.738 207.96ZM571.274 201.816C573.023 201.816 574.516 201.507 575.754 200.888C576.991 200.269 577.972 199.512 578.698 198.616C579.444 197.72 579.946 196.877 580.202 196.088C580.607 195.107 580.831 193.987 580.874 192.728C580.938 191.448 580.97 190.413 580.97 189.624L583.338 190.328C581.012 190.691 579.018 191.011 577.354 191.288C575.69 191.565 574.26 191.832 573.066 192.088C571.871 192.323 570.815 192.589 569.898 192.888C569.002 193.208 568.244 193.581 567.626 194.008C567.007 194.435 566.527 194.925 566.186 195.48C565.866 196.035 565.706 196.685 565.706 197.432C565.706 198.285 565.919 199.043 566.346 199.704C566.772 200.344 567.391 200.856 568.202 201.24C569.034 201.624 570.058 201.816 571.274 201.816ZM596.949 207V172.44H603.765V180.856L602.933 179.768C603.359 178.616 603.925 177.571 604.629 176.632C605.354 175.672 606.218 174.883 607.221 174.264C608.074 173.688 609.013 173.24 610.037 172.92C611.082 172.579 612.149 172.376 613.237 172.312C614.325 172.227 615.381 172.269 616.405 172.44V179.64C615.381 179.341 614.197 179.245 612.853 179.352C611.53 179.459 610.335 179.832 609.269 180.472C608.202 181.048 607.327 181.784 606.645 182.68C605.983 183.576 605.493 184.6 605.173 185.752C604.853 186.883 604.693 188.109 604.693 189.432V207H596.949ZM635.742 207.96C632.564 207.96 629.79 207.16 627.422 205.56C625.054 203.96 623.22 201.784 621.918 199.032C620.617 196.28 619.966 193.176 619.966 189.72C619.966 186.221 620.617 183.107 621.918 180.376C623.241 177.624 625.108 175.459 627.518 173.88C629.929 172.28 632.766 171.48 636.03 171.48C639.316 171.48 642.068 172.28 644.286 173.88C646.526 175.459 648.222 177.624 649.374 180.376C650.526 183.128 651.102 186.243 651.102 189.72C651.102 193.155 650.526 196.259 649.374 199.032C648.222 201.784 646.505 203.96 644.222 205.56C641.94 207.16 639.113 207.96 635.742 207.96ZM636.926 201.048C638.996 201.048 640.66 200.579 641.918 199.64C643.198 198.68 644.126 197.347 644.702 195.64C645.3 193.933 645.598 191.96 645.598 189.72C645.598 187.459 645.3 185.485 644.702 183.8C644.126 182.093 643.22 180.771 641.982 179.832C640.745 178.872 639.145 178.392 637.182 178.392C635.113 178.392 633.406 178.904 632.062 179.928C630.718 180.931 629.726 182.296 629.086 184.024C628.446 185.731 628.126 187.629 628.126 189.72C628.126 191.832 628.436 193.752 629.054 195.48C629.694 197.187 630.665 198.541 631.966 199.544C633.268 200.547 634.921 201.048 636.926 201.048ZM645.598 207V182.744H644.638V160.92H652.414V207H645.598ZM688.055 207.96C684.876 207.96 682.103 207.16 679.735 205.56C677.367 203.96 675.532 201.784 674.231 199.032C672.929 196.28 672.279 193.176 672.279 189.72C672.279 186.221 672.929 183.107 674.231 180.376C675.553 177.624 677.42 175.459 679.831 173.88C682.241 172.28 685.079 171.48 688.343 171.48C691.628 171.48 694.38 172.28 696.599 173.88C698.839 175.459 700.535 177.624 701.687 180.376C702.839 183.128 703.415 186.243 703.415 189.72C703.415 193.155 702.839 196.259 701.687 199.032C700.535 201.784 698.817 203.96 696.535 205.56C694.252 207.16 691.425 207.96 688.055 207.96ZM689.239 201.048C691.308 201.048 692.972 200.579 694.231 199.64C695.511 198.68 696.439 197.347 697.015 195.64C697.612 193.933 697.911 191.96 697.911 189.72C697.911 187.459 697.612 185.485 697.015 183.8C696.439 182.093 695.532 180.771 694.295 179.832C693.057 178.872 691.457 178.392 689.495 178.392C687.425 178.392 685.719 178.904 684.375 179.928C683.031 180.931 682.039 182.296 681.399 184.024C680.759 185.731 680.439 187.629 680.439 189.72C680.439 191.832 680.748 193.752 681.367 195.48C682.007 197.187 682.977 198.541 684.279 199.544C685.58 200.547 687.233 201.048 689.239 201.048ZM697.911 207V182.744H696.951V160.92H704.727V207H697.911ZM729.411 207.96C725.912 207.96 722.84 207.203 720.195 205.688C717.549 204.173 715.48 202.072 713.987 199.384C712.515 196.696 711.779 193.603 711.779 190.104C711.779 186.328 712.504 183.053 713.955 180.28C715.405 177.485 717.421 175.32 720.003 173.784C722.584 172.248 725.571 171.48 728.963 171.48C732.547 171.48 735.587 172.323 738.083 174.008C740.6 175.672 742.467 178.029 743.683 181.08C744.899 184.131 745.357 187.725 745.059 191.864H737.411V189.048C737.389 185.293 736.728 182.552 735.427 180.824C734.125 179.096 732.077 178.232 729.283 178.232C726.125 178.232 723.779 179.213 722.243 181.176C720.707 183.117 719.939 185.965 719.939 189.72C719.939 193.219 720.707 195.928 722.243 197.848C723.779 199.768 726.019 200.728 728.963 200.728C730.861 200.728 732.493 200.312 733.859 199.48C735.245 198.627 736.312 197.4 737.059 195.8L744.675 198.104C743.352 201.219 741.304 203.64 738.531 205.368C735.779 207.096 732.739 207.96 729.411 207.96ZM717.507 191.864V186.04H741.283V191.864H717.507ZM765.543 207.96C761.276 207.96 757.809 207 755.143 205.08C752.476 203.16 750.855 200.461 750.279 196.984L758.151 195.768C758.556 197.475 759.452 198.819 760.839 199.8C762.225 200.781 763.975 201.272 766.087 201.272C767.943 201.272 769.372 200.909 770.375 200.184C771.399 199.437 771.911 198.424 771.911 197.144C771.911 196.355 771.719 195.725 771.335 195.256C770.972 194.765 770.161 194.296 768.903 193.848C767.644 193.4 765.713 192.835 763.111 192.152C760.209 191.384 757.905 190.563 756.199 189.688C754.492 188.792 753.265 187.736 752.519 186.52C751.772 185.304 751.399 183.832 751.399 182.104C751.399 179.949 751.964 178.072 753.095 176.472C754.225 174.872 755.804 173.645 757.831 172.792C759.857 171.917 762.247 171.48 764.999 171.48C767.687 171.48 770.065 171.896 772.135 172.728C774.225 173.56 775.911 174.744 777.191 176.28C778.471 177.816 779.26 179.619 779.559 181.688L771.687 183.096C771.495 181.624 770.823 180.461 769.671 179.608C768.54 178.755 767.025 178.275 765.127 178.168C763.313 178.061 761.852 178.339 760.743 179C759.633 179.64 759.079 180.547 759.079 181.72C759.079 182.381 759.303 182.947 759.751 183.416C760.199 183.885 761.095 184.355 762.439 184.824C763.804 185.293 765.831 185.869 768.519 186.552C771.271 187.256 773.468 188.067 775.111 188.984C776.775 189.88 777.969 190.957 778.695 192.216C779.441 193.475 779.815 195 779.815 196.792C779.815 200.269 778.545 203 776.007 204.984C773.489 206.968 770.001 207.96 765.543 207.96ZM787.464 167.192V160.12H795.176V167.192H787.464ZM787.464 207V172.44H795.176V207H787.464ZM819.289 223.32C817.369 223.32 815.524 223.021 813.753 222.424C812.004 221.827 810.425 220.963 809.017 219.832C807.609 218.723 806.457 217.379 805.561 215.8L812.665 212.28C813.327 213.539 814.255 214.467 815.449 215.064C816.665 215.683 817.956 215.992 819.321 215.992C820.921 215.992 822.351 215.704 823.609 215.128C824.868 214.573 825.839 213.741 826.521 212.632C827.225 211.544 827.556 210.179 827.513 208.536V198.712H828.473V172.44H835.225V208.664C835.225 209.539 835.183 210.371 835.097 211.16C835.033 211.971 834.916 212.76 834.745 213.528C834.233 215.768 833.252 217.603 831.801 219.032C830.351 220.483 828.548 221.56 826.393 222.264C824.26 222.968 821.892 223.32 819.289 223.32ZM818.617 207.96C815.439 207.96 812.665 207.16 810.297 205.56C807.929 203.96 806.095 201.784 804.793 199.032C803.492 196.28 802.841 193.176 802.841 189.72C802.841 186.221 803.492 183.107 804.793 180.376C806.116 177.624 807.983 175.459 810.393 173.88C812.804 172.28 815.641 171.48 818.905 171.48C822.191 171.48 824.943 172.28 827.161 173.88C829.401 175.459 831.097 177.624 832.249 180.376C833.401 183.128 833.977 186.243 833.977 189.72C833.977 193.155 833.401 196.259 832.249 199.032C831.097 201.784 829.38 203.96 827.097 205.56C824.815 207.16 821.988 207.96 818.617 207.96ZM819.801 201.048C821.871 201.048 823.535 200.579 824.793 199.64C826.073 198.68 827.001 197.347 827.577 195.64C828.175 193.933 828.473 191.96 828.473 189.72C828.473 187.459 828.175 185.485 827.577 183.8C827.001 182.093 826.095 180.771 824.857 179.832C823.62 178.872 822.02 178.392 820.057 178.392C817.988 178.392 816.281 178.904 814.937 179.928C813.593 180.931 812.601 182.296 811.961 184.024C811.321 185.731 811.001 187.629 811.001 189.72C811.001 191.832 811.311 193.752 811.929 195.48C812.569 197.187 813.54 198.541 814.841 199.544C816.143 200.547 817.796 201.048 819.801 201.048ZM868.103 207V190.36C868.103 189.272 868.028 188.067 867.879 186.744C867.729 185.421 867.377 184.152 866.823 182.936C866.289 181.699 865.479 180.685 864.391 179.896C863.324 179.107 861.873 178.712 860.039 178.712C859.057 178.712 858.087 178.872 857.127 179.192C856.167 179.512 855.292 180.067 854.503 180.856C853.735 181.624 853.116 182.691 852.647 184.056C852.177 185.4 851.943 187.128 851.943 189.24L847.367 187.288C847.367 184.344 847.932 181.677 849.063 179.288C850.215 176.899 851.9 175 854.119 173.592C856.337 172.163 859.068 171.448 862.311 171.448C864.871 171.448 866.983 171.875 868.647 172.728C870.311 173.581 871.633 174.669 872.615 175.992C873.596 177.315 874.321 178.723 874.791 180.216C875.26 181.709 875.559 183.128 875.687 184.472C875.836 185.795 875.911 186.872 875.911 187.704V207H868.103ZM844.135 207V172.44H851.015V183.16H851.943V207H844.135Z" fill="white"/>
<path d="M420.957 287.96C417.394 287.96 414.354 287.171 411.837 285.592C409.319 283.992 407.389 281.816 406.045 279.064C404.722 276.312 404.05 273.197 404.029 269.72C404.05 266.179 404.743 263.043 406.109 260.312C407.495 257.56 409.458 255.405 411.997 253.848C414.535 252.269 417.554 251.48 421.053 251.48C424.978 251.48 428.295 252.472 431.005 254.456C433.735 256.419 435.517 259.107 436.349 262.52L428.669 264.6C428.071 262.744 427.079 261.304 425.693 260.28C424.306 259.235 422.727 258.712 420.957 258.712C418.951 258.712 417.298 259.192 415.997 260.152C414.695 261.091 413.735 262.392 413.117 264.056C412.498 265.72 412.189 267.608 412.189 269.72C412.189 273.005 412.925 275.661 414.397 277.688C415.869 279.715 418.055 280.728 420.957 280.728C423.005 280.728 424.615 280.259 425.789 279.32C426.983 278.381 427.879 277.027 428.477 275.256L436.349 277.016C435.282 280.536 433.415 283.245 430.749 285.144C428.082 287.021 424.818 287.96 420.957 287.96ZM457.088 287.96C453.632 287.96 450.613 287.181 448.032 285.624C445.45 284.067 443.445 281.923 442.016 279.192C440.608 276.44 439.904 273.283 439.904 269.72C439.904 266.093 440.629 262.915 442.08 260.184C443.53 257.453 445.546 255.32 448.128 253.784C450.709 252.248 453.696 251.48 457.088 251.48C460.565 251.48 463.594 252.259 466.176 253.816C468.757 255.373 470.762 257.528 472.192 260.28C473.621 263.011 474.336 266.157 474.336 269.72C474.336 273.304 473.61 276.472 472.16 279.224C470.73 281.955 468.725 284.099 466.144 285.656C463.562 287.192 460.544 287.96 457.088 287.96ZM457.088 280.728C460.16 280.728 462.442 279.704 463.936 277.656C465.429 275.608 466.176 272.963 466.176 269.72C466.176 266.371 465.418 263.704 463.904 261.72C462.389 259.715 460.117 258.712 457.088 258.712C455.018 258.712 453.312 259.181 451.968 260.12C450.645 261.037 449.664 262.328 449.024 263.992C448.384 265.635 448.064 267.544 448.064 269.72C448.064 273.069 448.821 275.747 450.336 277.752C451.872 279.736 454.122 280.728 457.088 280.728ZM522.89 287V266.008C522.89 263.64 522.304 261.795 521.13 260.472C519.957 259.128 518.368 258.456 516.362 258.456C515.125 258.456 514.016 258.744 513.034 259.32C512.053 259.875 511.274 260.707 510.698 261.816C510.122 262.904 509.834 264.205 509.834 265.72L506.41 263.704C506.389 261.315 506.922 259.213 508.01 257.4C509.12 255.565 510.613 254.136 512.49 253.112C514.368 252.088 516.458 251.576 518.762 251.576C522.581 251.576 525.504 252.728 527.53 255.032C529.578 257.315 530.602 260.323 530.602 264.056V287H522.89ZM481.322 287V252.44H488.138V263.16H489.098V287H481.322ZM502.154 287V266.104C502.154 263.693 501.568 261.816 500.394 260.472C499.221 259.128 497.621 258.456 495.594 258.456C493.632 258.456 492.053 259.128 490.858 260.472C489.685 261.816 489.098 263.565 489.098 265.72L485.642 263.416C485.642 261.176 486.197 259.16 487.306 257.368C488.416 255.576 489.909 254.168 491.786 253.144C493.685 252.099 495.808 251.576 498.154 251.576C500.736 251.576 502.89 252.131 504.618 253.24C506.368 254.328 507.669 255.821 508.522 257.72C509.397 259.597 509.834 261.72 509.834 264.088V287H502.154ZM539.589 247.192V240.12H547.301V247.192H539.589ZM539.589 287V252.44H547.301V287H539.589ZM580.79 287V270.36C580.79 269.272 580.716 268.067 580.566 266.744C580.417 265.421 580.065 264.152 579.51 262.936C578.977 261.699 578.166 260.685 577.078 259.896C576.012 259.107 574.561 258.712 572.726 258.712C571.745 258.712 570.774 258.872 569.814 259.192C568.854 259.512 567.98 260.067 567.19 260.856C566.422 261.624 565.804 262.691 565.334 264.056C564.865 265.4 564.63 267.128 564.63 269.24L560.054 267.288C560.054 264.344 560.62 261.677 561.75 259.288C562.902 256.899 564.588 255 566.806 253.592C569.025 252.163 571.756 251.448 574.998 251.448C577.558 251.448 579.67 251.875 581.334 252.728C582.998 253.581 584.321 254.669 585.302 255.992C586.284 257.315 587.009 258.723 587.478 260.216C587.948 261.709 588.246 263.128 588.374 264.472C588.524 265.795 588.598 266.872 588.598 267.704V287H580.79ZM556.822 287V252.44H563.702V263.16H564.63V287H556.822ZM611.477 303.32C609.557 303.32 607.711 303.021 605.941 302.424C604.191 301.827 602.613 300.963 601.205 299.832C599.797 298.723 598.645 297.379 597.749 295.8L604.853 292.28C605.514 293.539 606.442 294.467 607.637 295.064C608.853 295.683 610.143 295.992 611.509 295.992C613.109 295.992 614.538 295.704 615.797 295.128C617.055 294.573 618.026 293.741 618.709 292.632C619.413 291.544 619.743 290.179 619.701 288.536V278.712H620.661V252.44H627.413V288.664C627.413 289.539 627.37 290.371 627.285 291.16C627.221 291.971 627.103 292.76 626.933 293.528C626.421 295.768 625.439 297.603 623.989 299.032C622.538 300.483 620.735 301.56 618.581 302.264C616.447 302.968 614.079 303.32 611.477 303.32ZM610.805 287.96C607.626 287.96 604.853 287.16 602.485 285.56C600.117 283.96 598.282 281.784 596.981 279.032C595.679 276.28 595.029 273.176 595.029 269.72C595.029 266.221 595.679 263.107 596.981 260.376C598.303 257.624 600.17 255.459 602.581 253.88C604.991 252.28 607.829 251.48 611.093 251.48C614.378 251.48 617.13 252.28 619.349 253.88C621.589 255.459 623.285 257.624 624.437 260.376C625.589 263.128 626.165 266.243 626.165 269.72C626.165 273.155 625.589 276.259 624.437 279.032C623.285 281.784 621.567 283.96 619.285 285.56C617.002 287.16 614.175 287.96 610.805 287.96ZM611.989 281.048C614.058 281.048 615.722 280.579 616.981 279.64C618.261 278.68 619.189 277.347 619.765 275.64C620.362 273.933 620.661 271.96 620.661 269.72C620.661 267.459 620.362 265.485 619.765 263.8C619.189 262.093 618.282 260.771 617.045 259.832C615.807 258.872 614.207 258.392 612.245 258.392C610.175 258.392 608.469 258.904 607.125 259.928C605.781 260.931 604.789 262.296 604.149 264.024C603.509 265.731 603.189 267.629 603.189 269.72C603.189 271.832 603.498 273.752 604.117 275.48C604.757 277.187 605.727 278.541 607.029 279.544C608.33 280.547 609.983 281.048 611.989 281.048ZM662.543 287.96C658.276 287.96 654.809 287 652.143 285.08C649.476 283.16 647.855 280.461 647.279 276.984L655.151 275.768C655.556 277.475 656.452 278.819 657.839 279.8C659.225 280.781 660.975 281.272 663.087 281.272C664.943 281.272 666.372 280.909 667.375 280.184C668.399 279.437 668.911 278.424 668.911 277.144C668.911 276.355 668.719 275.725 668.335 275.256C667.972 274.765 667.161 274.296 665.903 273.848C664.644 273.4 662.713 272.835 660.111 272.152C657.209 271.384 654.905 270.563 653.199 269.688C651.492 268.792 650.265 267.736 649.519 266.52C648.772 265.304 648.399 263.832 648.399 262.104C648.399 259.949 648.964 258.072 650.095 256.472C651.225 254.872 652.804 253.645 654.831 252.792C656.857 251.917 659.247 251.48 661.999 251.48C664.687 251.48 667.065 251.896 669.135 252.728C671.225 253.56 672.911 254.744 674.191 256.28C675.471 257.816 676.26 259.619 676.559 261.688L668.687 263.096C668.495 261.624 667.823 260.461 666.671 259.608C665.54 258.755 664.025 258.275 662.127 258.168C660.313 258.061 658.852 258.339 657.743 259C656.633 259.64 656.079 260.547 656.079 261.72C656.079 262.381 656.303 262.947 656.751 263.416C657.199 263.885 658.095 264.355 659.439 264.824C660.804 265.293 662.831 265.869 665.519 266.552C668.271 267.256 670.468 268.067 672.111 268.984C673.775 269.88 674.969 270.957 675.695 272.216C676.441 273.475 676.815 275 676.815 276.792C676.815 280.269 675.545 283 673.007 284.984C670.489 286.968 667.001 287.96 662.543 287.96ZM699.088 287.96C695.632 287.96 692.613 287.181 690.032 285.624C687.45 284.067 685.445 281.923 684.016 279.192C682.608 276.44 681.904 273.283 681.904 269.72C681.904 266.093 682.629 262.915 684.08 260.184C685.53 257.453 687.546 255.32 690.128 253.784C692.709 252.248 695.696 251.48 699.088 251.48C702.565 251.48 705.594 252.259 708.176 253.816C710.757 255.373 712.762 257.528 714.192 260.28C715.621 263.011 716.336 266.157 716.336 269.72C716.336 273.304 715.61 276.472 714.16 279.224C712.73 281.955 710.725 284.099 708.144 285.656C705.562 287.192 702.544 287.96 699.088 287.96ZM699.088 280.728C702.16 280.728 704.442 279.704 705.936 277.656C707.429 275.608 708.176 272.963 708.176 269.72C708.176 266.371 707.418 263.704 705.904 261.72C704.389 259.715 702.117 258.712 699.088 258.712C697.018 258.712 695.312 259.181 693.968 260.12C692.645 261.037 691.664 262.328 691.024 263.992C690.384 265.635 690.064 267.544 690.064 269.72C690.064 273.069 690.821 275.747 692.336 277.752C693.872 279.736 696.122 280.728 699.088 280.728ZM738.65 287.96C735.194 287.96 732.176 287.181 729.594 285.624C727.013 284.067 725.008 281.923 723.578 279.192C722.17 276.44 721.466 273.283 721.466 269.72C721.466 266.093 722.192 262.915 723.642 260.184C725.093 257.453 727.109 255.32 729.69 253.784C732.272 252.248 735.258 251.48 738.65 251.48C742.128 251.48 745.157 252.259 747.738 253.816C750.32 255.373 752.325 257.528 753.754 260.28C755.184 263.011 755.898 266.157 755.898 269.72C755.898 273.304 755.173 276.472 753.722 279.224C752.293 281.955 750.288 284.099 747.706 285.656C745.125 287.192 742.106 287.96 738.65 287.96ZM738.65 280.728C741.722 280.728 744.005 279.704 745.498 277.656C746.992 275.608 747.738 272.963 747.738 269.72C747.738 266.371 746.981 263.704 745.466 261.72C743.952 259.715 741.68 258.712 738.65 258.712C736.581 258.712 734.874 259.181 733.53 260.12C732.208 261.037 731.226 262.328 730.586 263.992C729.946 265.635 729.626 267.544 729.626 269.72C729.626 273.069 730.384 275.747 731.898 277.752C733.434 279.736 735.685 280.728 738.65 280.728ZM786.853 287V270.36C786.853 269.272 786.778 268.067 786.629 266.744C786.479 265.421 786.127 264.152 785.573 262.936C785.039 261.699 784.229 260.685 783.141 259.896C782.074 259.107 780.623 258.712 778.789 258.712C777.807 258.712 776.837 258.872 775.877 259.192C774.917 259.512 774.042 260.067 773.253 260.856C772.485 261.624 771.866 262.691 771.397 264.056C770.927 265.4 770.693 267.128 770.693 269.24L766.117 267.288C766.117 264.344 766.682 261.677 767.813 259.288C768.965 256.899 770.65 255 772.869 253.592C775.087 252.163 777.818 251.448 781.061 251.448C783.621 251.448 785.733 251.875 787.397 252.728C789.061 253.581 790.383 254.669 791.365 255.992C792.346 257.315 793.071 258.723 793.541 260.216C794.01 261.709 794.309 263.128 794.437 264.472C794.586 265.795 794.661 266.872 794.661 267.704V287H786.853ZM762.885 287V252.44H769.765V263.16H770.693V287H762.885Z" fill="url(#paint0_linear_87_190)"/>
<rect width="181.476" height="181.476" transform="matrix(0.866025 -0.5 0.866025 0.5 443 604.761)" stroke="url(#paint1_linear_87_190)" strokeWidth="10" strokeLinejoin="bevel"/>
<rect width="125.61" height="125.61" transform="matrix(0.866025 -0.5 2.20305e-08 1 599.862 513.203)" fill="url(#paint2_linear_87_190)"/>
<rect width="125.61" height="125.61" transform="matrix(0.866025 0.5 -2.20305e-08 1 491.08 450.398)" fill="url(#paint3_linear_87_190)"/>
<g style="mix-blend-mode:darken">
<rect width="125.61" height="125.61" transform="matrix(0.866025 -0.5 0.866025 0.5 491.08 450.398)" fill="url(#paint4_linear_87_190)"/>
</g>
<g style="mix-blend-mode:screen" opacity="0.4">
<rect width="125.61" height="125.61" transform="matrix(0.866025 -0.5 0.866025 0.5 491.487 496.794)" fill="url(#paint5_linear_87_190)"/>
</g>
<g style="mix-blend-mode:screen" opacity="0.4">
<rect width="125.61" height="125.61" transform="matrix(0.866025 -0.5 0.866025 0.5 491.487 541.937)" fill="url(#paint6_linear_87_190)"/>
</g>
<g style="mix-blend-mode:screen" opacity="0.4">
<rect width="125.61" height="125.61" transform="matrix(0.866025 -0.5 0.866025 0.5 492 455.805)" fill="url(#paint7_linear_87_190)"/>
</g>
<rect width="181.408" height="180.976" transform="matrix(0.866025 -0.5 0.866025 0.5 443 422.704)" fill="black" fillOpacity="0.15" stroke="url(#paint8_linear_87_190)" strokeWidth="10" strokeLinejoin="bevel"/>
<rect width="180.976" height="182.278" transform="matrix(0.866025 -0.5 2.20305e-08 1 600.596 513.192)" fill="#612702" fillOpacity="0.5" stroke="url(#paint9_linear_87_190)" strokeWidth="10" strokeLinejoin="bevel"/>
<path d="M443 426.787C443 425.13 444.163 424.458 445.598 425.287L596.266 512.275C597.701 513.103 598.864 515.118 598.864 516.775L598.864 691.6C598.864 693.257 597.701 693.928 596.266 693.1L445.598 606.112C444.163 605.283 443 603.269 443 601.612L443 426.787Z" fill="#E85D04" fillOpacity="0.28" stroke="url(#paint10_linear_87_190)" strokeWidth="10" strokeLinejoin="round"/>
<defs>
<linearGradient id="paint0_linear_87_190" x1="315" y1="255.016" x2="851.793" y2="312.891" gradientUnits="userSpaceOnUse">
<stop stopColor="#FAA307"/>
<stop offset="0.518161" stopColor="#FF5400"/>
<stop offset="1" stopColor="#FF0054"/>
</linearGradient>
<linearGradient id="paint1_linear_87_190" x1="90.7379" y1="0" x2="90.7379" y2="181.476" gradientUnits="userSpaceOnUse">
<stop stopColor="#CB3068"/>
<stop offset="1" stopColor="#CC5C1D"/>
</linearGradient>
<linearGradient id="paint2_linear_87_190" x1="149.206" y1="65.8883" x2="16.4272" y2="160.544" gradientUnits="userSpaceOnUse">
<stop stopColor="#FF7C32"/>
<stop offset="1" stopColor="#CB3068"/>
</linearGradient>
<linearGradient id="paint3_linear_87_190" x1="150.941" y1="-35.5035" x2="-61.2105" y2="-22.8085" gradientUnits="userSpaceOnUse">
<stop stopColor="#E7702E"/>
<stop offset="1" stopColor="#CB3068"/>
</linearGradient>
<linearGradient id="paint4_linear_87_190" x1="99.9331" y1="99.9331" x2="91.2464" y2="-48.755" gradientUnits="userSpaceOnUse">
<stop stopColor="#FF7C32"/>
<stop offset="1" stopColor="#CB3068"/>
</linearGradient>
<linearGradient id="paint5_linear_87_190" x1="99.9331" y1="99.9331" x2="91.2464" y2="-48.755" gradientUnits="userSpaceOnUse">
<stop stopColor="#FF7C32"/>
<stop offset="1" stopColor="#CB3068"/>
</linearGradient>
<linearGradient id="paint6_linear_87_190" x1="99.9331" y1="99.9331" x2="91.2464" y2="-48.755" gradientUnits="userSpaceOnUse">
<stop stopColor="#FF7C32"/>
<stop offset="1" stopColor="#CB3068"/>
</linearGradient>
<linearGradient id="paint7_linear_87_190" x1="99.9331" y1="99.9331" x2="91.2464" y2="-48.755" gradientUnits="userSpaceOnUse">
<stop stopColor="#FF7C32"/>
<stop offset="1" stopColor="#CB3068"/>
</linearGradient>
<linearGradient id="paint8_linear_87_190" x1="90.7042" y1="0" x2="90.7042" y2="180.976" gradientUnits="userSpaceOnUse">
<stop stopColor="#CB3068"/>
<stop offset="1" stopColor="#CC5C1D"/>
</linearGradient>
<linearGradient id="paint9_linear_87_190" x1="90.4879" y1="0" x2="90.4879" y2="182.278" gradientUnits="userSpaceOnUse">
<stop stopColor="#CB3068"/>
<stop offset="1" stopColor="#CC5C1D"/>
</linearGradient>
<linearGradient id="paint10_linear_87_190" x1="520.932" y1="468.781" x2="442.632" y2="604.4" gradientUnits="userSpaceOnUse">
<stop stopColor="#CB3068"/>
<stop offset="1" stopColor="#CC5C1D"/>
</linearGradient>
</defs>
</svg>
