<svg width="1440" height="914" viewBox="0 0 1440 914" fill="none" xmlns="http://www.w3.org/2000/svg">
<g clip-path="url(#clip0_181_326)">
<rect width="68.5714" height="68.006" stroke="white" stroke-opacity="0.06" stroke-width="0.238095"/>
<rect x="68.5714" width="68.5714" height="68.006" stroke="white" stroke-opacity="0.06" stroke-width="0.238095"/>
<rect x="137.143" width="68.5714" height="68.006" stroke="white" stroke-opacity="0.06" stroke-width="0.238095"/>
<rect x="205.714" width="68.5714" height="68.006" stroke="white" stroke-opacity="0.06" stroke-width="0.238095"/>
<rect x="274.286" width="68.5714" height="68.006" stroke="white" stroke-opacity="0.06" stroke-width="0.238095"/>
<rect x="342.857" width="68.5714" height="68.006" stroke="white" stroke-opacity="0.06" stroke-width="0.238095"/>
<rect x="411.429" width="68.5714" height="68.006" stroke="white" stroke-opacity="0.06" stroke-width="0.238095"/>
<rect x="480" width="68.5714" height="68.006" stroke="white" stroke-opacity="0.06" stroke-width="0.238095"/>
<rect x="548.571" width="68.5714" height="68.006" stroke="white" stroke-opacity="0.06" stroke-width="0.238095"/>
<rect x="617.143" width="68.5714" height="68.006" stroke="white" stroke-opacity="0.06" stroke-width="0.238095"/>
<rect x="685.714" width="68.5714" height="68.006" stroke="white" stroke-opacity="0.06" stroke-width="0.238095"/>
<rect x="754.286" width="68.5714" height="68.006" stroke="white" stroke-opacity="0.06" stroke-width="0.238095"/>
<rect x="822.857" width="68.5714" height="68.006" stroke="white" stroke-opacity="0.06" stroke-width="0.238095"/>
<rect x="891.429" width="68.5714" height="68.006" stroke="white" stroke-opacity="0.06" stroke-width="0.238095"/>
<rect x="960" width="68.5714" height="68.006" stroke="white" stroke-opacity="0.06" stroke-width="0.238095"/>
<rect x="1028.57" width="68.5714" height="68.006" stroke="white" stroke-opacity="0.06" stroke-width="0.238095"/>
<rect x="1097.14" width="68.5714" height="68.006" stroke="white" stroke-opacity="0.06" stroke-width="0.238095"/>
<rect x="1165.71" width="68.5714" height="68.006" stroke="white" stroke-opacity="0.06" stroke-width="0.238095"/>
<rect x="1234.29" width="68.5714" height="68.006" stroke="white" stroke-opacity="0.06" stroke-width="0.238095"/>
<rect x="1302.86" width="68.5714" height="68.006" stroke="white" stroke-opacity="0.06" stroke-width="0.238095"/>
<rect x="1371.43" width="68.5714" height="68.006" stroke="white" stroke-opacity="0.06" stroke-width="0.238095"/>
<rect y="68.0059" width="68.5714" height="68.006" stroke="white" stroke-opacity="0.06" stroke-width="0.238095"/>
<rect x="68.5714" y="68.0059" width="68.5714" height="68.006" stroke="white" stroke-opacity="0.06" stroke-width="0.238095"/>
<rect x="137.143" y="68.0059" width="68.5714" height="68.006" fill="white" fill-opacity="0.05" stroke="white" stroke-opacity="0.06" stroke-width="0.238095"/>
<rect x="205.714" y="68.0059" width="68.5714" height="68.006" stroke="white" stroke-opacity="0.06" stroke-width="0.238095"/>
<rect x="274.286" y="68.0059" width="68.5714" height="68.006" stroke="white" stroke-opacity="0.06" stroke-width="0.238095"/>
<rect x="342.857" y="68.0059" width="68.5714" height="68.006" stroke="white" stroke-opacity="0.06" stroke-width="0.238095"/>
<rect x="411.429" y="68.0059" width="68.5714" height="68.006" stroke="white" stroke-opacity="0.06" stroke-width="0.238095"/>
<rect x="480" y="68.0059" width="68.5714" height="68.006" stroke="white" stroke-opacity="0.06" stroke-width="0.238095"/>
<rect x="548.571" y="68.0059" width="68.5714" height="68.006" stroke="white" stroke-opacity="0.06" stroke-width="0.238095"/>
<rect x="617.143" y="68.0059" width="68.5714" height="68.006" fill="white" fill-opacity="0.05" stroke="white" stroke-opacity="0.06" stroke-width="0.238095"/>
<rect x="685.714" y="68.0059" width="68.5714" height="68.006" stroke="white" stroke-opacity="0.06" stroke-width="0.238095"/>
<rect x="754.286" y="68.0059" width="68.5714" height="68.006" stroke="white" stroke-opacity="0.06" stroke-width="0.238095"/>
<rect x="822.857" y="68.0059" width="68.5714" height="68.006" stroke="white" stroke-opacity="0.06" stroke-width="0.238095"/>
<rect x="891.429" y="68.0059" width="68.5714" height="68.006" stroke="white" stroke-opacity="0.06" stroke-width="0.238095"/>
<rect x="960" y="68.0059" width="68.5714" height="68.006" stroke="white" stroke-opacity="0.06" stroke-width="0.238095"/>
<rect x="1028.57" y="68.0059" width="68.5714" height="68.006" stroke="white" stroke-opacity="0.06" stroke-width="0.238095"/>
<rect x="1097.14" y="68.0059" width="68.5714" height="68.006" stroke="white" stroke-opacity="0.06" stroke-width="0.238095"/>
<rect x="1165.71" y="68.0059" width="68.5714" height="68.006" stroke="white" stroke-opacity="0.06" stroke-width="0.238095"/>
<rect x="1234.29" y="68.0059" width="68.5714" height="68.006" stroke="white" stroke-opacity="0.06" stroke-width="0.238095"/>
<rect x="1302.86" y="68.0059" width="68.5714" height="68.006" stroke="white" stroke-opacity="0.06" stroke-width="0.238095"/>
<rect x="1371.43" y="68.0059" width="68.5714" height="68.006" stroke="white" stroke-opacity="0.06" stroke-width="0.238095"/>
<rect y="136.012" width="68.5714" height="68.006" stroke="white" stroke-opacity="0.06" stroke-width="0.238095"/>
<rect x="68.5714" y="136.012" width="68.5714" height="68.006" stroke="white" stroke-opacity="0.06" stroke-width="0.238095"/>
<rect x="137.143" y="136.012" width="68.5714" height="68.006" stroke="white" stroke-opacity="0.06" stroke-width="0.238095"/>
<rect x="205.714" y="136.012" width="68.5714" height="68.006" stroke="white" stroke-opacity="0.06" stroke-width="0.238095"/>
<rect x="274.286" y="136.012" width="68.5714" height="68.006" stroke="white" stroke-opacity="0.06" stroke-width="0.238095"/>
<rect x="342.857" y="136.012" width="68.5714" height="68.006" stroke="white" stroke-opacity="0.06" stroke-width="0.238095"/>
<rect x="411.429" y="136.012" width="68.5714" height="68.006" stroke="white" stroke-opacity="0.06" stroke-width="0.238095"/>
<rect x="480" y="136.012" width="68.5714" height="68.006" stroke="white" stroke-opacity="0.06" stroke-width="0.238095"/>
<rect x="548.571" y="136.012" width="68.5714" height="68.006" stroke="white" stroke-opacity="0.06" stroke-width="0.238095"/>
<rect x="617.143" y="136.012" width="68.5714" height="68.006" stroke="white" stroke-opacity="0.06" stroke-width="0.238095"/>
<rect x="685.714" y="136.012" width="68.5714" height="68.006" stroke="white" stroke-opacity="0.06" stroke-width="0.238095"/>
<rect x="754.286" y="136.012" width="68.5714" height="68.006" stroke="white" stroke-opacity="0.06" stroke-width="0.238095"/>
<rect x="822.857" y="136.012" width="68.5714" height="68.006" stroke="white" stroke-opacity="0.06" stroke-width="0.238095"/>
<rect x="891.429" y="136.012" width="68.5714" height="68.006" stroke="white" stroke-opacity="0.06" stroke-width="0.238095"/>
<rect x="960" y="136.012" width="68.5714" height="68.006" stroke="white" stroke-opacity="0.06" stroke-width="0.238095"/>
<rect x="1028.57" y="136.012" width="68.5714" height="68.006" stroke="white" stroke-opacity="0.06" stroke-width="0.238095"/>
<rect x="1097.14" y="136.012" width="68.5714" height="68.006" fill="white" fill-opacity="0.05" stroke="white" stroke-opacity="0.06" stroke-width="0.238095"/>
<rect x="1165.71" y="136.012" width="68.5714" height="68.006" stroke="white" stroke-opacity="0.06" stroke-width="0.238095"/>
<rect x="1234.29" y="136.012" width="68.5714" height="68.006" stroke="white" stroke-opacity="0.06" stroke-width="0.238095"/>
<rect x="1302.86" y="136.012" width="68.5714" height="68.006" stroke="white" stroke-opacity="0.06" stroke-width="0.238095"/>
<rect x="1371.43" y="136.012" width="68.5714" height="68.006" stroke="white" stroke-opacity="0.06" stroke-width="0.238095"/>
<rect y="204.018" width="68.5714" height="68.006" stroke="white" stroke-opacity="0.06" stroke-width="0.238095"/>
<rect x="68.5714" y="204.018" width="68.5714" height="68.006" stroke="white" stroke-opacity="0.06" stroke-width="0.238095"/>
<rect x="137.143" y="204.018" width="68.5714" height="68.006" stroke="white" stroke-opacity="0.06" stroke-width="0.238095"/>
<rect x="205.714" y="204.018" width="68.5714" height="68.006" stroke="white" stroke-opacity="0.06" stroke-width="0.238095"/>
<rect x="274.286" y="204.018" width="68.5714" height="68.006" stroke="white" stroke-opacity="0.06" stroke-width="0.238095"/>
<rect x="342.857" y="204.018" width="68.5714" height="68.006" stroke="white" stroke-opacity="0.06" stroke-width="0.238095"/>
<rect x="411.429" y="204.018" width="68.5714" height="68.006" stroke="white" stroke-opacity="0.06" stroke-width="0.238095"/>
<rect x="480" y="204.018" width="68.5714" height="68.006" stroke="white" stroke-opacity="0.06" stroke-width="0.238095"/>
<rect x="548.571" y="204.018" width="68.5714" height="68.006" stroke="white" stroke-opacity="0.06" stroke-width="0.238095"/>
<rect x="617.143" y="204.018" width="68.5714" height="68.006" stroke="white" stroke-opacity="0.06" stroke-width="0.238095"/>
<rect x="685.714" y="204.018" width="68.5714" height="68.006" stroke="white" stroke-opacity="0.06" stroke-width="0.238095"/>
<rect x="754.286" y="204.018" width="68.5714" height="68.006" stroke="white" stroke-opacity="0.06" stroke-width="0.238095"/>
<rect x="822.857" y="204.018" width="68.5714" height="68.006" stroke="white" stroke-opacity="0.06" stroke-width="0.238095"/>
<rect x="891.429" y="204.018" width="68.5714" height="68.006" stroke="white" stroke-opacity="0.06" stroke-width="0.238095"/>
<rect x="960" y="204.018" width="68.5714" height="68.006" stroke="white" stroke-opacity="0.06" stroke-width="0.238095"/>
<rect x="1028.57" y="204.018" width="68.5714" height="68.006" stroke="white" stroke-opacity="0.06" stroke-width="0.238095"/>
<rect x="1097.14" y="204.018" width="68.5714" height="68.006" stroke="white" stroke-opacity="0.06" stroke-width="0.238095"/>
<rect x="1165.71" y="204.018" width="68.5714" height="68.006" stroke="white" stroke-opacity="0.06" stroke-width="0.238095"/>
<rect x="1234.29" y="204.018" width="68.5714" height="68.006" stroke="white" stroke-opacity="0.06" stroke-width="0.238095"/>
<rect x="1302.86" y="204.018" width="68.5714" height="68.006" stroke="white" stroke-opacity="0.06" stroke-width="0.238095"/>
<rect x="1371.43" y="204.018" width="68.5714" height="68.006" stroke="white" stroke-opacity="0.06" stroke-width="0.238095"/>
<rect y="272.024" width="68.5714" height="68.006" stroke="white" stroke-opacity="0.06" stroke-width="0.238095"/>
<rect x="68.5714" y="272.024" width="68.5714" height="68.006" stroke="white" stroke-opacity="0.06" stroke-width="0.238095"/>
<rect x="137.143" y="272.024" width="68.5714" height="68.006" stroke="white" stroke-opacity="0.06" stroke-width="0.238095"/>
<rect x="205.714" y="272.024" width="68.5714" height="68.006" fill="white" fill-opacity="0.05" stroke="white" stroke-opacity="0.06" stroke-width="0.238095"/>
<rect x="274.286" y="272.024" width="68.5714" height="68.006" stroke="white" stroke-opacity="0.06" stroke-width="0.238095"/>
<rect x="342.857" y="272.024" width="68.5714" height="68.006" stroke="white" stroke-opacity="0.06" stroke-width="0.238095"/>
<rect x="411.429" y="272.024" width="68.5714" height="68.006" stroke="white" stroke-opacity="0.06" stroke-width="0.238095"/>
<rect x="480" y="272.024" width="68.5714" height="68.006" stroke="white" stroke-opacity="0.06" stroke-width="0.238095"/>
<rect x="548.571" y="272.024" width="68.5714" height="68.006" stroke="white" stroke-opacity="0.06" stroke-width="0.238095"/>
<rect x="617.143" y="272.024" width="68.5714" height="68.006" stroke="white" stroke-opacity="0.06" stroke-width="0.238095"/>
<rect x="685.714" y="272.024" width="68.5714" height="68.006" stroke="white" stroke-opacity="0.06" stroke-width="0.238095"/>
<rect x="754.286" y="272.024" width="68.5714" height="68.006" stroke="white" stroke-opacity="0.06" stroke-width="0.238095"/>
<rect x="822.857" y="272.024" width="68.5714" height="68.006" fill="white" fill-opacity="0.05" stroke="white" stroke-opacity="0.06" stroke-width="0.238095"/>
<rect x="891.429" y="272.024" width="68.5714" height="68.006" stroke="white" stroke-opacity="0.06" stroke-width="0.238095"/>
<rect x="960" y="272.024" width="68.5714" height="68.006" stroke="white" stroke-opacity="0.06" stroke-width="0.238095"/>
<rect x="1028.57" y="272.024" width="68.5714" height="68.006" stroke="white" stroke-opacity="0.06" stroke-width="0.238095"/>
<rect x="1097.14" y="272.024" width="68.5714" height="68.006" stroke="white" stroke-opacity="0.06" stroke-width="0.238095"/>
<rect x="1165.71" y="272.024" width="68.5714" height="68.006" stroke="white" stroke-opacity="0.06" stroke-width="0.238095"/>
<rect x="1234.29" y="272.024" width="68.5714" height="68.006" stroke="white" stroke-opacity="0.06" stroke-width="0.238095"/>
<rect x="1302.86" y="272.024" width="68.5714" height="68.006" stroke="white" stroke-opacity="0.06" stroke-width="0.238095"/>
<rect x="1371.43" y="272.024" width="68.5714" height="68.006" stroke="white" stroke-opacity="0.06" stroke-width="0.238095"/>
<rect y="340.03" width="68.5714" height="68.006" stroke="white" stroke-opacity="0.06" stroke-width="0.238095"/>
<rect x="68.5714" y="340.03" width="68.5714" height="68.006" stroke="white" stroke-opacity="0.06" stroke-width="0.238095"/>
<rect x="137.143" y="340.03" width="68.5714" height="68.006" stroke="white" stroke-opacity="0.06" stroke-width="0.238095"/>
<rect x="205.714" y="340.03" width="68.5714" height="68.006" stroke="white" stroke-opacity="0.06" stroke-width="0.238095"/>
<rect x="274.286" y="340.03" width="68.5714" height="68.006" stroke="white" stroke-opacity="0.06" stroke-width="0.238095"/>
<rect x="342.857" y="340.03" width="68.5714" height="68.006" stroke="white" stroke-opacity="0.06" stroke-width="0.238095"/>
<rect x="411.429" y="340.03" width="68.5714" height="68.006" stroke="white" stroke-opacity="0.06" stroke-width="0.238095"/>
<rect x="480" y="340.03" width="68.5714" height="68.006" stroke="white" stroke-opacity="0.06" stroke-width="0.238095"/>
<rect x="548.571" y="340.03" width="68.5714" height="68.006" stroke="white" stroke-opacity="0.06" stroke-width="0.238095"/>
<rect x="617.143" y="340.03" width="68.5714" height="68.006" stroke="white" stroke-opacity="0.06" stroke-width="0.238095"/>
<rect x="685.714" y="340.03" width="68.5714" height="68.006" stroke="white" stroke-opacity="0.06" stroke-width="0.238095"/>
<rect x="754.286" y="340.03" width="68.5714" height="68.006" stroke="white" stroke-opacity="0.06" stroke-width="0.238095"/>
<rect x="822.857" y="340.03" width="68.5714" height="68.006" stroke="white" stroke-opacity="0.06" stroke-width="0.238095"/>
<rect x="891.429" y="340.03" width="68.5714" height="68.006" stroke="white" stroke-opacity="0.06" stroke-width="0.238095"/>
<rect x="960" y="340.03" width="68.5714" height="68.006" stroke="white" stroke-opacity="0.06" stroke-width="0.238095"/>
<rect x="1028.57" y="340.03" width="68.5714" height="68.006" stroke="white" stroke-opacity="0.06" stroke-width="0.238095"/>
<rect x="1097.14" y="340.03" width="68.5714" height="68.006" stroke="white" stroke-opacity="0.06" stroke-width="0.238095"/>
<rect x="1165.71" y="340.03" width="68.5714" height="68.006" stroke="white" stroke-opacity="0.06" stroke-width="0.238095"/>
<rect x="1234.29" y="340.03" width="68.5714" height="68.006" fill="white" fill-opacity="0.05" stroke="white" stroke-opacity="0.06" stroke-width="0.238095"/>
<rect x="1302.86" y="340.03" width="68.5714" height="68.006" stroke="white" stroke-opacity="0.06" stroke-width="0.238095"/>
<rect x="1371.43" y="340.03" width="68.5714" height="68.006" stroke="white" stroke-opacity="0.06" stroke-width="0.238095"/>
<rect y="408.036" width="68.5714" height="68.006" stroke="white" stroke-opacity="0.06" stroke-width="0.238095"/>
<rect x="68.5714" y="408.036" width="68.5714" height="68.006" stroke="white" stroke-opacity="0.06" stroke-width="0.238095"/>
<rect x="137.143" y="408.036" width="68.5714" height="68.006" stroke="white" stroke-opacity="0.06" stroke-width="0.238095"/>
<rect x="205.714" y="408.036" width="68.5714" height="68.006" stroke="white" stroke-opacity="0.06" stroke-width="0.238095"/>
<rect x="274.286" y="408.036" width="68.5714" height="68.006" stroke="white" stroke-opacity="0.06" stroke-width="0.238095"/>
<rect x="342.857" y="408.036" width="68.5714" height="68.006" stroke="white" stroke-opacity="0.06" stroke-width="0.238095"/>
<rect x="411.429" y="408.036" width="68.5714" height="68.006" stroke="white" stroke-opacity="0.06" stroke-width="0.238095"/>
<rect x="480" y="408.036" width="68.5714" height="68.006" stroke="white" stroke-opacity="0.06" stroke-width="0.238095"/>
<rect x="548.571" y="408.036" width="68.5714" height="68.006" stroke="white" stroke-opacity="0.06" stroke-width="0.238095"/>
<rect x="617.143" y="408.036" width="68.5714" height="68.006" stroke="white" stroke-opacity="0.06" stroke-width="0.238095"/>
<rect x="685.714" y="408.036" width="68.5714" height="68.006" stroke="white" stroke-opacity="0.06" stroke-width="0.238095"/>
<rect x="754.286" y="408.036" width="68.5714" height="68.006" stroke="white" stroke-opacity="0.06" stroke-width="0.238095"/>
<rect x="822.857" y="408.036" width="68.5714" height="68.006" stroke="white" stroke-opacity="0.06" stroke-width="0.238095"/>
<rect x="891.429" y="408.036" width="68.5714" height="68.006" stroke="white" stroke-opacity="0.06" stroke-width="0.238095"/>
<rect x="960" y="408.036" width="68.5714" height="68.006" stroke="white" stroke-opacity="0.06" stroke-width="0.238095"/>
<rect x="1028.57" y="408.036" width="68.5714" height="68.006" stroke="white" stroke-opacity="0.06" stroke-width="0.238095"/>
<rect x="1097.14" y="408.036" width="68.5714" height="68.006" stroke="white" stroke-opacity="0.06" stroke-width="0.238095"/>
<rect x="1165.71" y="408.036" width="68.5714" height="68.006" stroke="white" stroke-opacity="0.06" stroke-width="0.238095"/>
<rect x="1234.29" y="408.036" width="68.5714" height="68.006" stroke="white" stroke-opacity="0.06" stroke-width="0.238095"/>
<rect x="1302.86" y="408.036" width="68.5714" height="68.006" stroke="white" stroke-opacity="0.06" stroke-width="0.238095"/>
<rect x="1371.43" y="408.036" width="68.5714" height="68.006" stroke="white" stroke-opacity="0.06" stroke-width="0.238095"/>
<rect y="476.042" width="68.5714" height="68.006" stroke="white" stroke-opacity="0.06" stroke-width="0.238095"/>
<rect x="68.5714" y="476.042" width="68.5714" height="68.006" stroke="white" stroke-opacity="0.06" stroke-width="0.238095"/>
<rect x="137.143" y="476.042" width="68.5714" height="68.006" stroke="white" stroke-opacity="0.06" stroke-width="0.238095"/>
<rect x="205.714" y="476.042" width="68.5714" height="68.006" stroke="white" stroke-opacity="0.06" stroke-width="0.238095"/>
<rect x="274.286" y="476.042" width="68.5714" height="68.006" stroke="white" stroke-opacity="0.06" stroke-width="0.238095"/>
<rect x="342.857" y="476.042" width="68.5714" height="68.006" stroke="white" stroke-opacity="0.06" stroke-width="0.238095"/>
<rect x="411.429" y="476.042" width="68.5714" height="68.006" stroke="white" stroke-opacity="0.06" stroke-width="0.238095"/>
<rect x="480" y="476.042" width="68.5714" height="68.006" stroke="white" stroke-opacity="0.06" stroke-width="0.238095"/>
<rect x="548.571" y="476.042" width="68.5714" height="68.006" fill="white" fill-opacity="0.05" stroke="white" stroke-opacity="0.06" stroke-width="0.238095"/>
<rect x="617.143" y="476.042" width="68.5714" height="68.006" stroke="white" stroke-opacity="0.06" stroke-width="0.238095"/>
<rect x="685.714" y="476.042" width="68.5714" height="68.006" stroke="white" stroke-opacity="0.06" stroke-width="0.238095"/>
<rect x="754.286" y="476.042" width="68.5714" height="68.006" stroke="white" stroke-opacity="0.06" stroke-width="0.238095"/>
<rect x="822.857" y="476.042" width="68.5714" height="68.006" stroke="white" stroke-opacity="0.06" stroke-width="0.238095"/>
<rect x="891.429" y="476.042" width="68.5714" height="68.006" stroke="white" stroke-opacity="0.06" stroke-width="0.238095"/>
<rect x="960" y="476.042" width="68.5714" height="68.006" stroke="white" stroke-opacity="0.06" stroke-width="0.238095"/>
<rect x="1028.57" y="476.042" width="68.5714" height="68.006" stroke="white" stroke-opacity="0.06" stroke-width="0.238095"/>
<rect x="1097.14" y="476.042" width="68.5714" height="68.006" stroke="white" stroke-opacity="0.06" stroke-width="0.238095"/>
<rect x="1165.71" y="476.042" width="68.5714" height="68.006" stroke="white" stroke-opacity="0.06" stroke-width="0.238095"/>
<rect x="1234.29" y="476.042" width="68.5714" height="68.006" stroke="white" stroke-opacity="0.06" stroke-width="0.238095"/>
<rect x="1302.86" y="476.042" width="68.5714" height="68.006" stroke="white" stroke-opacity="0.06" stroke-width="0.238095"/>
<rect x="1371.43" y="476.042" width="68.5714" height="68.006" stroke="white" stroke-opacity="0.06" stroke-width="0.238095"/>
<rect y="544.048" width="68.5714" height="68.006" stroke="white" stroke-opacity="0.06" stroke-width="0.238095"/>
<rect x="68.5714" y="544.048" width="68.5714" height="68.006" stroke="white" stroke-opacity="0.06" stroke-width="0.238095"/>
<rect x="137.143" y="544.048" width="68.5714" height="68.006" stroke="white" stroke-opacity="0.06" stroke-width="0.238095"/>
<rect x="205.714" y="544.048" width="68.5714" height="68.006" stroke="white" stroke-opacity="0.06" stroke-width="0.238095"/>
<rect x="274.286" y="544.048" width="68.5714" height="68.006" fill="white" fill-opacity="0.05" stroke="white" stroke-opacity="0.06" stroke-width="0.238095"/>
<rect x="342.857" y="544.048" width="68.5714" height="68.006" stroke="white" stroke-opacity="0.06" stroke-width="0.238095"/>
<rect x="411.429" y="544.048" width="68.5714" height="68.006" stroke="white" stroke-opacity="0.06" stroke-width="0.238095"/>
<rect x="480" y="544.048" width="68.5714" height="68.006" stroke="white" stroke-opacity="0.06" stroke-width="0.238095"/>
<rect x="548.571" y="544.048" width="68.5714" height="68.006" stroke="white" stroke-opacity="0.06" stroke-width="0.238095"/>
<rect x="617.143" y="544.048" width="68.5714" height="68.006" stroke="white" stroke-opacity="0.06" stroke-width="0.238095"/>
<rect x="685.714" y="544.048" width="68.5714" height="68.006" stroke="white" stroke-opacity="0.06" stroke-width="0.238095"/>
<rect x="754.286" y="544.048" width="68.5714" height="68.006" stroke="white" stroke-opacity="0.06" stroke-width="0.238095"/>
<rect x="822.857" y="544.048" width="68.5714" height="68.006" stroke="white" stroke-opacity="0.06" stroke-width="0.238095"/>
<rect x="891.429" y="544.048" width="68.5714" height="68.006" stroke="white" stroke-opacity="0.06" stroke-width="0.238095"/>
<rect x="960" y="544.048" width="68.5714" height="68.006" stroke="white" stroke-opacity="0.06" stroke-width="0.238095"/>
<rect x="1028.57" y="544.048" width="68.5714" height="68.006" stroke="white" stroke-opacity="0.06" stroke-width="0.238095"/>
<rect x="1097.14" y="544.048" width="68.5714" height="68.006" stroke="white" stroke-opacity="0.06" stroke-width="0.238095"/>
<rect x="1165.71" y="544.048" width="68.5714" height="68.006" stroke="white" stroke-opacity="0.06" stroke-width="0.238095"/>
<rect x="1234.29" y="544.048" width="68.5714" height="68.006" stroke="white" stroke-opacity="0.06" stroke-width="0.238095"/>
<rect x="1302.86" y="544.048" width="68.5714" height="68.006" stroke="white" stroke-opacity="0.06" stroke-width="0.238095"/>
<rect x="1371.43" y="544.048" width="68.5714" height="68.006" stroke="white" stroke-opacity="0.06" stroke-width="0.238095"/>
<rect y="612.054" width="68.5714" height="68.006" stroke="white" stroke-opacity="0.06" stroke-width="0.238095"/>
<rect x="68.5714" y="612.054" width="68.5714" height="68.006" stroke="white" stroke-opacity="0.06" stroke-width="0.238095"/>
<rect x="137.143" y="612.054" width="68.5714" height="68.006" stroke="white" stroke-opacity="0.06" stroke-width="0.238095"/>
<rect x="205.714" y="612.054" width="68.5714" height="68.006" stroke="white" stroke-opacity="0.06" stroke-width="0.238095"/>
<rect x="274.286" y="612.054" width="68.5714" height="68.006" stroke="white" stroke-opacity="0.06" stroke-width="0.238095"/>
<rect x="342.857" y="612.054" width="68.5714" height="68.006" stroke="white" stroke-opacity="0.06" stroke-width="0.238095"/>
<rect x="411.429" y="612.054" width="68.5714" height="68.006" stroke="white" stroke-opacity="0.06" stroke-width="0.238095"/>
<rect x="480" y="612.054" width="68.5714" height="68.006" stroke="white" stroke-opacity="0.06" stroke-width="0.238095"/>
<rect x="548.571" y="612.054" width="68.5714" height="68.006" stroke="white" stroke-opacity="0.06" stroke-width="0.238095"/>
<rect x="617.143" y="612.054" width="68.5714" height="68.006" stroke="white" stroke-opacity="0.06" stroke-width="0.238095"/>
<rect x="685.714" y="612.054" width="68.5714" height="68.006" stroke="white" stroke-opacity="0.06" stroke-width="0.238095"/>
<rect x="754.286" y="612.054" width="68.5714" height="68.006" stroke="white" stroke-opacity="0.06" stroke-width="0.238095"/>
<rect x="822.857" y="612.054" width="68.5714" height="68.006" stroke="white" stroke-opacity="0.06" stroke-width="0.238095"/>
<rect x="891.429" y="612.054" width="68.5714" height="68.006" stroke="white" stroke-opacity="0.06" stroke-width="0.238095"/>
<rect x="960" y="612.054" width="68.5714" height="68.006" stroke="white" stroke-opacity="0.06" stroke-width="0.238095"/>
<rect x="1028.57" y="612.054" width="68.5714" height="68.006" stroke="white" stroke-opacity="0.06" stroke-width="0.238095"/>
<rect x="1097.14" y="612.054" width="68.5714" height="68.006" stroke="white" stroke-opacity="0.06" stroke-width="0.238095"/>
<rect x="1165.71" y="612.054" width="68.5714" height="68.006" stroke="white" stroke-opacity="0.06" stroke-width="0.238095"/>
<rect x="1234.29" y="612.054" width="68.5714" height="68.006" stroke="white" stroke-opacity="0.06" stroke-width="0.238095"/>
<rect x="1302.86" y="612.054" width="68.5714" height="68.006" stroke="white" stroke-opacity="0.06" stroke-width="0.238095"/>
<rect x="1371.43" y="612.054" width="68.5714" height="68.006" stroke="white" stroke-opacity="0.06" stroke-width="0.238095"/>
<rect y="680.06" width="68.5714" height="68.006" stroke="white" stroke-opacity="0.06" stroke-width="0.238095"/>
<rect x="68.5714" y="680.06" width="68.5714" height="68.006" stroke="white" stroke-opacity="0.06" stroke-width="0.238095"/>
<rect x="137.143" y="680.06" width="68.5714" height="68.006" stroke="white" stroke-opacity="0.06" stroke-width="0.238095"/>
<rect x="205.714" y="680.06" width="68.5714" height="68.006" stroke="white" stroke-opacity="0.06" stroke-width="0.238095"/>
<rect x="274.286" y="680.06" width="68.5714" height="68.006" stroke="white" stroke-opacity="0.06" stroke-width="0.238095"/>
<rect x="342.857" y="680.06" width="68.5714" height="68.006" stroke="white" stroke-opacity="0.06" stroke-width="0.238095"/>
<rect x="411.429" y="680.06" width="68.5714" height="68.006" stroke="white" stroke-opacity="0.06" stroke-width="0.238095"/>
<rect x="480" y="680.06" width="68.5714" height="68.006" stroke="white" stroke-opacity="0.06" stroke-width="0.238095"/>
<rect x="548.571" y="680.06" width="68.5714" height="68.006" stroke="white" stroke-opacity="0.06" stroke-width="0.238095"/>
<rect x="617.143" y="680.06" width="68.5714" height="68.006" stroke="white" stroke-opacity="0.06" stroke-width="0.238095"/>
<rect x="685.714" y="680.06" width="68.5714" height="68.006" stroke="white" stroke-opacity="0.06" stroke-width="0.238095"/>
<rect x="754.286" y="680.06" width="68.5714" height="68.006" stroke="white" stroke-opacity="0.06" stroke-width="0.238095"/>
<rect x="822.857" y="680.06" width="68.5714" height="68.006" stroke="white" stroke-opacity="0.06" stroke-width="0.238095"/>
<rect x="891.429" y="680.06" width="68.5714" height="68.006" stroke="white" stroke-opacity="0.06" stroke-width="0.238095"/>
<rect x="960" y="680.06" width="68.5714" height="68.006" stroke="white" stroke-opacity="0.06" stroke-width="0.238095"/>
<rect x="1028.57" y="680.06" width="68.5714" height="68.006" stroke="white" stroke-opacity="0.06" stroke-width="0.238095"/>
<rect x="1097.14" y="680.06" width="68.5714" height="68.006" stroke="white" stroke-opacity="0.06" stroke-width="0.238095"/>
<rect x="1165.71" y="680.06" width="68.5714" height="68.006" stroke="white" stroke-opacity="0.06" stroke-width="0.238095"/>
<rect x="1234.29" y="680.06" width="68.5714" height="68.006" stroke="white" stroke-opacity="0.06" stroke-width="0.238095"/>
<rect x="1302.86" y="680.06" width="68.5714" height="68.006" stroke="white" stroke-opacity="0.06" stroke-width="0.238095"/>
<rect x="1371.43" y="680.06" width="68.5714" height="68.006" stroke="white" stroke-opacity="0.06" stroke-width="0.238095"/>
<rect y="748.065" width="68.5714" height="68.006" stroke="white" stroke-opacity="0.06" stroke-width="0.238095"/>
<rect x="68.5714" y="748.065" width="68.5714" height="68.006" stroke="white" stroke-opacity="0.06" stroke-width="0.238095"/>
<rect x="137.143" y="748.065" width="68.5714" height="68.006" stroke="white" stroke-opacity="0.06" stroke-width="0.238095"/>
<rect x="205.714" y="748.065" width="68.5714" height="68.006" stroke="white" stroke-opacity="0.06" stroke-width="0.238095"/>
<rect x="274.286" y="748.065" width="68.5714" height="68.006" stroke="white" stroke-opacity="0.06" stroke-width="0.238095"/>
<rect x="342.857" y="748.065" width="68.5714" height="68.006" stroke="white" stroke-opacity="0.06" stroke-width="0.238095"/>
<rect x="411.429" y="748.065" width="68.5714" height="68.006" stroke="white" stroke-opacity="0.06" stroke-width="0.238095"/>
<rect x="480" y="748.065" width="68.5714" height="68.006" stroke="white" stroke-opacity="0.06" stroke-width="0.238095"/>
<rect x="548.571" y="748.065" width="68.5714" height="68.006" stroke="white" stroke-opacity="0.06" stroke-width="0.238095"/>
<rect x="617.143" y="748.065" width="68.5714" height="68.006" stroke="white" stroke-opacity="0.06" stroke-width="0.238095"/>
<rect x="685.714" y="748.065" width="68.5714" height="68.006" stroke="white" stroke-opacity="0.06" stroke-width="0.238095"/>
<rect x="754.286" y="748.065" width="68.5714" height="68.006" stroke="white" stroke-opacity="0.06" stroke-width="0.238095"/>
<rect x="822.857" y="748.065" width="68.5714" height="68.006" stroke="white" stroke-opacity="0.06" stroke-width="0.238095"/>
<rect x="891.429" y="748.065" width="68.5714" height="68.006" stroke="white" stroke-opacity="0.06" stroke-width="0.238095"/>
<rect x="960" y="748.065" width="68.5714" height="68.006" stroke="white" stroke-opacity="0.06" stroke-width="0.238095"/>
<rect x="1028.57" y="748.065" width="68.5714" height="68.006" stroke="white" stroke-opacity="0.06" stroke-width="0.238095"/>
<rect x="1097.14" y="748.065" width="68.5714" height="68.006" stroke="white" stroke-opacity="0.06" stroke-width="0.238095"/>
<rect x="1165.71" y="748.065" width="68.5714" height="68.006" stroke="white" stroke-opacity="0.06" stroke-width="0.238095"/>
<rect x="1234.29" y="748.065" width="68.5714" height="68.006" stroke="white" stroke-opacity="0.06" stroke-width="0.238095"/>
<rect x="1302.86" y="748.065" width="68.5714" height="68.006" stroke="white" stroke-opacity="0.06" stroke-width="0.238095"/>
<rect x="1371.43" y="748.065" width="68.5714" height="68.006" stroke="white" stroke-opacity="0.06" stroke-width="0.238095"/>
<rect y="816.071" width="68.5714" height="68.006" stroke="white" stroke-opacity="0.06" stroke-width="0.238095"/>
<rect x="68.5714" y="816.071" width="68.5714" height="68.006" stroke="white" stroke-opacity="0.06" stroke-width="0.238095"/>
<rect x="137.143" y="816.071" width="68.5714" height="68.006" stroke="white" stroke-opacity="0.06" stroke-width="0.238095"/>
<rect x="205.714" y="816.071" width="68.5714" height="68.006" stroke="white" stroke-opacity="0.06" stroke-width="0.238095"/>
<rect x="274.286" y="816.071" width="68.5714" height="68.006" stroke="white" stroke-opacity="0.06" stroke-width="0.238095"/>
<rect x="342.857" y="816.071" width="68.5714" height="68.006" stroke="white" stroke-opacity="0.06" stroke-width="0.238095"/>
<rect x="411.429" y="816.071" width="68.5714" height="68.006" stroke="white" stroke-opacity="0.06" stroke-width="0.238095"/>
<rect x="480" y="816.071" width="68.5714" height="68.006" stroke="white" stroke-opacity="0.06" stroke-width="0.238095"/>
<rect x="548.571" y="816.071" width="68.5714" height="68.006" stroke="white" stroke-opacity="0.06" stroke-width="0.238095"/>
<rect x="617.143" y="816.071" width="68.5714" height="68.006" stroke="white" stroke-opacity="0.06" stroke-width="0.238095"/>
<rect x="685.714" y="816.071" width="68.5714" height="68.006" stroke="white" stroke-opacity="0.06" stroke-width="0.238095"/>
<rect x="754.286" y="816.071" width="68.5714" height="68.006" stroke="white" stroke-opacity="0.06" stroke-width="0.238095"/>
<rect x="822.857" y="816.071" width="68.5714" height="68.006" stroke="white" stroke-opacity="0.06" stroke-width="0.238095"/>
<rect x="891.429" y="816.071" width="68.5714" height="68.006" stroke="white" stroke-opacity="0.06" stroke-width="0.238095"/>
<rect x="960" y="816.071" width="68.5714" height="68.006" stroke="white" stroke-opacity="0.06" stroke-width="0.238095"/>
<rect x="1028.57" y="816.071" width="68.5714" height="68.006" stroke="white" stroke-opacity="0.06" stroke-width="0.238095"/>
<rect x="1097.14" y="816.071" width="68.5714" height="68.006" stroke="white" stroke-opacity="0.06" stroke-width="0.238095"/>
<rect x="1165.71" y="816.071" width="68.5714" height="68.006" stroke="white" stroke-opacity="0.06" stroke-width="0.238095"/>
<rect x="1234.29" y="816.071" width="68.5714" height="68.006" stroke="white" stroke-opacity="0.06" stroke-width="0.238095"/>
<rect x="1302.86" y="816.071" width="68.5714" height="68.006" stroke="white" stroke-opacity="0.06" stroke-width="0.238095"/>
<rect x="1371.43" y="816.071" width="68.5714" height="68.006" stroke="white" stroke-opacity="0.06" stroke-width="0.238095"/>
<g filter="url(#filter0_f_181_326)">
<rect x="-116.571" y="-958.997" width="1738.97" height="1358.34" fill="url(#paint0_radial_181_326)"/>
</g>
<rect x="-308.69" y="-317.91" width="1977.84" height="1232.03" fill="url(#paint1_radial_181_326)" stroke="#0A101F" stroke-width="0.238095"/>
<rect x="-30" y="556.969" width="1500" height="357.031" fill="url(#paint2_linear_181_326)"/>
</g>
<defs>
<filter id="filter0_f_181_326" x="-188" y="-1030.43" width="1881.83" height="1501.2" filterUnits="userSpaceOnUse" color-interpolation-filters="sRGB">
<feFlood flood-opacity="0" result="BackgroundImageFix"/>
<feBlend mode="normal" in="SourceGraphic" in2="BackgroundImageFix" result="shape"/>
<feGaussianBlur stdDeviation="35.7143" result="effect1_foregroundBlur_181_326"/>
</filter>
<radialGradient id="paint0_radial_181_326" cx="0" cy="0" r="1" gradientUnits="userSpaceOnUse" gradientTransform="translate(752.914 -279.825) rotate(90) scale(679.172 869.486)">
<stop offset="0.015625" stop-color="#23160F" stop-opacity="0.25"/>
<stop offset="0.223958" stop-color="#3C1C0D" stop-opacity="0.15"/>
<stop offset="0.911458" stop-color="#2F1F0A" stop-opacity="0.2"/>
</radialGradient>
<radialGradient id="paint1_radial_181_326" cx="0" cy="0" r="1" gradientUnits="userSpaceOnUse" gradientTransform="translate(680.229 298.105) rotate(90) scale(615.895 988.8)">
<stop/>
<stop offset="0.833333" stop-color="#231108" stop-opacity="0.25"/>
</radialGradient>
<linearGradient id="paint2_linear_181_326" x1="720" y1="556.969" x2="720" y2="914" gradientUnits="userSpaceOnUse">
<stop stop-opacity="0"/>
<stop offset="1"/>
</linearGradient>
<clipPath id="clip0_181_326">
<rect width="1440" height="914" fill="white"/>
</clipPath>
</defs>
</svg>
