<svg width="27" height="28" viewBox="0 0 27 28" fill="none" xmlns="http://www.w3.org/2000/svg">
<path fill-rule="evenodd" clip-rule="evenodd" d="M13.5036 0.5C9.83734 0.5 9.37432 0.51518 7.93212 0.575904C6.49751 0.644219 5.51832 0.871935 4.66059 1.20592C3.75724 1.54366 2.93861 2.07474 2.26199 2.76198C1.57884 3.43754 1.0475 4.24972 0.705926 5.153C0.312165 6.20259 0.0991419 7.31133 0.07591 8.43211C0.0151857 9.87431 0 10.3297 0 14.0036C0 17.6698 0.0151857 18.1252 0.07591 19.5674C0.151815 21.0096 0.379533 21.9888 0.705926 22.8465C1.04465 23.7472 1.57567 24.5631 2.26199 25.2376C3.02104 25.989 3.7725 26.452 4.66059 26.7936C5.51832 27.1276 6.49751 27.3553 7.93212 27.4236C9.37432 27.4919 9.82975 27.4995 13.5036 27.4995C17.1698 27.4995 17.6328 27.4919 19.0674 27.4236C20.5096 27.3553 21.4964 27.1276 22.3465 26.7936C23.2472 26.4549 24.0631 25.9239 24.7376 25.2376C25.4241 24.5633 25.9551 23.7473 26.2936 22.8465C26.6352 21.9888 26.8629 21.002 26.9236 19.5674C26.9919 18.1252 26.9995 17.6698 26.9995 14.0036C26.9995 10.3297 26.9919 9.87431 26.9236 8.43211C26.8553 6.98991 26.6352 6.01073 26.2936 5.153C25.9549 4.25236 25.4239 3.43641 24.7376 2.76198C24.0631 2.07566 23.2472 1.54464 22.3465 1.20592C21.297 0.811874 20.1882 0.598843 19.0674 0.575904C17.6252 0.51518 17.1698 0.5 13.5036 0.5ZM13.5036 18.5048C12.3068 18.5048 11.159 18.0293 10.3127 17.1831C9.46643 16.3368 8.99099 15.189 8.99099 13.9922C8.99099 12.7954 9.46643 11.6476 10.3127 10.8013C11.159 9.95503 12.3068 9.4796 13.5036 9.4796C14.7014 9.4796 15.8501 9.95543 16.6971 10.8024C17.5441 11.6494 18.0199 12.7982 18.0199 13.996C18.0199 15.1938 17.5441 16.3425 16.6971 17.1895C15.8501 18.0365 14.7014 18.5123 13.5036 18.5123V18.5048ZM13.5036 7.05822C12.592 7.05822 11.6893 7.23777 10.8471 7.58662C10.005 7.93546 9.23974 8.44677 8.59516 9.09135C7.95057 9.73594 7.43926 10.5012 7.09042 11.3434C6.74157 12.1855 6.56202 13.0882 6.56202 13.9998C6.56202 14.9113 6.74157 15.814 7.09042 16.6562C7.43926 17.4984 7.95057 18.2636 8.59516 18.9082C9.23974 19.5528 10.005 20.0641 10.8471 20.4129C11.6893 20.7618 12.592 20.9413 13.5036 20.9413C15.3446 20.9413 17.1102 20.21 18.412 18.9082C19.7138 17.6064 20.4451 15.8408 20.4451 13.9998C20.4451 12.1588 19.7138 10.3931 18.412 9.09135C17.1102 7.78956 15.3446 7.05822 13.5036 7.05822ZM22.4604 6.92918C22.4604 7.36402 22.2877 7.78105 21.9802 8.08852C21.6727 8.396 21.2557 8.56874 20.8208 8.56874C20.386 8.56874 19.969 8.396 19.6615 8.08852C19.354 7.78105 19.1813 7.36402 19.1813 6.92918C19.1813 6.49334 19.3544 6.07535 19.6626 5.76716C19.9708 5.45897 20.3888 5.28583 20.8246 5.28583C21.2605 5.28583 21.6785 5.45897 21.9867 5.76716C22.2949 6.07535 22.468 6.49334 22.468 6.92918H22.4604Z" fill="white"/>
</svg>
