<?xml version="1.0" encoding="UTF-8" standalone="no"?>
<!DOCTYPE svg PUBLIC "-//W3C//DTD SVG 1.1//EN" "http://www.w3.org/Graphics/SVG/1.1/DTD/svg11.dtd">
<svg xmlns="http://www.w3.org/2000/svg" version="1.1" viewBox="0.00 0.00 88.00 89.00">
<g stroke-width="2.00" fill="none" stroke-linecap="butt">
<path stroke="#747474" vector-effect="non-scaling-stroke" d="
  M 55.43 2.23
  C 65.95 10.06 64.65 26.03 62.96 37.32
  A 1.42 1.42 0.0 0 0 63.17 38.30
  Q 68.82 47.06 70.59 57.34
  Q 70.67 57.82 71.15 57.81
  L 77.36 57.73
  A 0.72 0.70 82.9 0 1 78.06 58.29
  L 80.40 68.92"
/>
<path stroke="#747474" vector-effect="non-scaling-stroke" d="
  M 78.30 71.63
  L 75.77 61.28
  A 0.69 0.69 0.0 0 0 75.10 60.76
  L 70.36 60.76
  A 0.80 0.79 -78.1 0 0 69.63 61.24
  Q 67.58 65.92 62.91 67.98
  Q 62.43 68.19 62.37 68.71
  L 62.01 71.57
  Q 61.92 72.30 61.18 72.30
  L 31.03 72.34
  A 0.80 0.79 -5.8 0 1 30.25 71.71
  L 29.25 66.81
  Q 29.14 66.25 28.79 65.80
  L 25.09 61.07
  A 0.84 0.83 -18.8 0 0 24.43 60.75
  L 13.00 60.75
  Q 12.56 60.75 12.46 61.18
  L 9.92 72.00"
/>
<path stroke="#747474" vector-effect="non-scaling-stroke" d="
  M 7.48 68.71
  L 10.00 58.42
  Q 10.12 57.91 10.64 57.91
  L 22.95 57.94
  Q 23.40 57.94 23.36 57.49
  C 22.82 51.55 25.83 45.92 28.74 40.59
  Q 28.99 40.15 28.95 39.64
  Q 27.55 22.23 27.54 17.03
  Q 27.51 6.39 38.01 0.93"
/>
<path stroke="#747474" vector-effect="non-scaling-stroke" d="
  M 61.14 18.30
  Q 55.12 15.13 50.79 9.91
  Q 50.46 9.51 50.10 9.88
  C 45.99 14.21 37.43 14.77 31.77 15.37
  Q 31.23 15.43 31.24 15.97
  Q 31.43 26.22 40.34 30.63
  Q 41.64 31.28 41.89 31.79
  Q 42.30 32.65 41.76 34.02
  A 0.49 0.49 0.0 0 0 42.21 34.69
  L 49.88 34.88
  A 0.58 0.58 0.0 0 0 50.48 34.31
  L 50.51 32.15
  A 1.01 1.00 80.2 0 1 51.16 31.22
  Q 59.75 28.06 61.49 19.03
  A 0.67 0.67 0.0 0 0 61.14 18.30"
/>
<path stroke="#747474" vector-effect="non-scaling-stroke" d="
  M 60.46 48.87
  L 58.02 46.97
  Q 57.40 46.49 57.24 47.26
  L 56.87 49.05
  A 0.56 0.55 -87.0 0 0 57.47 49.72
  L 60.30 49.42
  A 0.31 0.31 0.0 0 0 60.46 48.87"
/>
<path stroke="#747474" vector-effect="non-scaling-stroke" d="
  M 33.42 49.09
  A 0.46 0.46 0.0 0 0 33.90 49.79
  L 34.75 49.59
  A 0.52 0.52 0.0 0 0 34.76 48.57
  Q 33.90 48.36 33.42 49.09"
/>
<path stroke="#747474" vector-effect="non-scaling-stroke" d="
  M 59.83 70.50
  A 0.31 0.31 0.0 0 0 60.14 70.25
  L 63.27 53.37
  A 0.31 0.31 0.0 0 0 62.97 53.00
  L 29.14 53.00
  A 0.31 0.31 0.0 0 0 28.84 53.37
  L 31.96 70.25
  A 0.31 0.31 0.0 0 0 32.27 70.50
  L 59.83 70.50"
/>
<path stroke="#747474" vector-effect="non-scaling-stroke" d="
  M 47.36 61.71
  A 1.94 1.94 0.0 0 0 45.42 59.77
  A 1.94 1.94 0.0 0 0 43.48 61.71
  A 1.94 1.94 0.0 0 0 45.42 63.65
  A 1.94 1.94 0.0 0 0 47.36 61.71"
/>
<path stroke="#747474" vector-effect="non-scaling-stroke" d="
  M 55.32 86.83
  L 33.15 86.88"
/>
</g>
<path fill="#000000" d="
  M 55.43 2.23
  C 65.95 10.06 64.65 26.03 62.96 37.32
  A 1.42 1.42 0.0 0 0 63.17 38.30
  Q 68.82 47.06 70.59 57.34
  Q 70.67 57.82 71.15 57.81
  L 77.36 57.73
  A 0.72 0.70 82.9 0 1 78.06 58.29
  L 80.40 68.92
  L 78.30 71.63
  L 75.77 61.28
  A 0.69 0.69 0.0 0 0 75.10 60.76
  L 70.36 60.76
  A 0.80 0.79 -78.1 0 0 69.63 61.24
  Q 67.58 65.92 62.91 67.98
  Q 62.43 68.19 62.37 68.71
  L 62.01 71.57
  Q 61.92 72.30 61.18 72.30
  L 31.03 72.34
  A 0.80 0.79 -5.8 0 1 30.25 71.71
  L 29.25 66.81
  Q 29.14 66.25 28.79 65.80
  L 25.09 61.07
  A 0.84 0.83 -18.8 0 0 24.43 60.75
  L 13.00 60.75
  Q 12.56 60.75 12.46 61.18
  L 9.92 72.00
  L 7.48 68.71
  L 10.00 58.42
  Q 10.12 57.91 10.64 57.91
  L 22.95 57.94
  Q 23.40 57.94 23.36 57.49
  C 22.82 51.55 25.83 45.92 28.74 40.59
  Q 28.99 40.15 28.95 39.64
  Q 27.55 22.23 27.54 17.03
  Q 27.51 6.39 38.01 0.93
  Q 46.66 -0.24 55.43 2.23
  Z
  M 61.14 18.30
  Q 55.12 15.13 50.79 9.91
  Q 50.46 9.51 50.10 9.88
  C 45.99 14.21 37.43 14.77 31.77 15.37
  Q 31.23 15.43 31.24 15.97
  Q 31.43 26.22 40.34 30.63
  Q 41.64 31.28 41.89 31.79
  Q 42.30 32.65 41.76 34.02
  A 0.49 0.49 0.0 0 0 42.21 34.69
  L 49.88 34.88
  A 0.58 0.58 0.0 0 0 50.48 34.31
  L 50.51 32.15
  A 1.01 1.00 80.2 0 1 51.16 31.22
  Q 59.75 28.06 61.49 19.03
  A 0.67 0.67 0.0 0 0 61.14 18.30
  Z
  M 60.46 48.87
  L 58.02 46.97
  Q 57.40 46.49 57.24 47.26
  L 56.87 49.05
  A 0.56 0.55 -87.0 0 0 57.47 49.72
  L 60.30 49.42
  A 0.31 0.31 0.0 0 0 60.46 48.87
  Z
  M 33.42 49.09
  A 0.46 0.46 0.0 0 0 33.90 49.79
  L 34.75 49.59
  A 0.52 0.52 0.0 0 0 34.76 48.57
  Q 33.90 48.36 33.42 49.09
  Z
  M 59.83 70.50
  A 0.31 0.31 0.0 0 0 60.14 70.25
  L 63.27 53.37
  A 0.31 0.31 0.0 0 0 62.97 53.00
  L 29.14 53.00
  A 0.31 0.31 0.0 0 0 28.84 53.37
  L 31.96 70.25
  A 0.31 0.31 0.0 0 0 32.27 70.50
  L 59.83 70.50
  Z"
/>
<path fill="#e7e7e7" d="
  M 38.01 0.93
  Q 27.51 6.39 27.54 17.03
  Q 27.55 22.23 28.95 39.64
  Q 28.99 40.15 28.74 40.59
  C 25.83 45.92 22.82 51.55 23.36 57.49
  Q 23.40 57.94 22.95 57.94
  L 10.64 57.91
  Q 10.12 57.91 10.00 58.42
  L 7.48 68.71
  Q 0.97 58.76 0.00 46.61
  L 0.00 42.23
  Q 4.39 7.85 38.01 0.93
  Z"
/>
<path fill="#e7e7e7" d="
  M 55.43 2.23
  C 74.45 7.34 86.08 23.16 88.00 42.35
  L 88.00 46.47
  Q 87.01 58.79 80.40 68.92
  L 78.06 58.29
  A 0.72 0.70 82.9 0 0 77.36 57.73
  L 71.15 57.81
  Q 70.67 57.82 70.59 57.34
  Q 68.82 47.06 63.17 38.30
  A 1.42 1.42 0.0 0 1 62.96 37.32
  C 64.65 26.03 65.95 10.06 55.43 2.23
  Z"
/>
<path fill="#e7e7e7" d="
  M 61.14 18.30
  A 0.67 0.67 0.0 0 1 61.49 19.03
  Q 59.75 28.06 51.16 31.22
  A 1.01 1.00 80.2 0 0 50.51 32.15
  L 50.48 34.31
  A 0.58 0.58 0.0 0 1 49.88 34.88
  L 42.21 34.69
  A 0.49 0.49 0.0 0 1 41.76 34.02
  Q 42.30 32.65 41.89 31.79
  Q 41.64 31.28 40.34 30.63
  Q 31.43 26.22 31.24 15.97
  Q 31.23 15.43 31.77 15.37
  C 37.43 14.77 45.99 14.21 50.10 9.88
  Q 50.46 9.51 50.79 9.91
  Q 55.12 15.13 61.14 18.30
  Z"
/>
<path fill="#e7e7e7" d="
  M 60.46 48.87
  A 0.31 0.31 0.0 0 1 60.30 49.42
  L 57.47 49.72
  A 0.56 0.55 -87.0 0 1 56.87 49.05
  L 57.24 47.26
  Q 57.40 46.49 58.02 46.97
  L 60.46 48.87
  Z"
/>
<path fill="#e7e7e7" d="
  M 33.42 49.09
  Q 33.90 48.36 34.76 48.57
  A 0.52 0.52 0.0 0 1 34.75 49.59
  L 33.90 49.79
  A 0.46 0.46 0.0 0 1 33.42 49.09
  Z"
/>
<path fill="#e7e7e7" d="
  M 59.83 70.50
  L 32.27 70.50
  A 0.31 0.31 0.0 0 1 31.96 70.25
  L 28.84 53.37
  A 0.31 0.31 0.0 0 1 29.14 53.00
  L 62.97 53.00
  A 0.31 0.31 0.0 0 1 63.27 53.37
  L 60.14 70.25
  A 0.31 0.31 0.0 0 1 59.83 70.50
  Z
  M 47.36 61.71
  A 1.94 1.94 0.0 0 0 45.42 59.77
  A 1.94 1.94 0.0 0 0 43.48 61.71
  A 1.94 1.94 0.0 0 0 45.42 63.65
  A 1.94 1.94 0.0 0 0 47.36 61.71
  Z"
/>
<circle fill="#000000" cx="45.42" cy="61.71" r="1.94"/>
<path fill="#e7e7e7" d="
  M 78.30 71.63
  Q 69.62 82.83 55.32 86.83
  L 33.15 86.88
  Q 19.22 83.45 9.92 72.00
  L 12.46 61.18
  Q 12.56 60.75 13.00 60.75
  L 24.43 60.75
  A 0.84 0.83 -18.8 0 1 25.09 61.07
  L 28.79 65.80
  Q 29.14 66.25 29.25 66.81
  L 30.25 71.71
  A 0.80 0.79 -5.8 0 0 31.03 72.34
  L 61.18 72.30
  Q 61.92 72.30 62.01 71.57
  L 62.37 68.71
  Q 62.43 68.19 62.91 67.98
  Q 67.58 65.92 69.63 61.24
  A 0.80 0.79 -78.1 0 1 70.36 60.76
  L 75.10 60.76
  A 0.69 0.69 0.0 0 1 75.77 61.28
  L 78.30 71.63
  Z"
/>
<path fill="#000000" d="
  M 33.15 86.88
  L 55.32 86.83
  Q 44.13 89.97 33.15 86.88
  Z"
/>
</svg>
