<svg width="21" height="26" viewBox="0 0 21 26" fill="none" xmlns="http://www.w3.org/2000/svg">
<path d="M14.8745 17.2041V8.09279C16.3931 9.61134 18.6709 10.3706 20.9488 10.3706V6.57423L17.9116 4.29639L14.8745 0.5H11.8374V18.7227C11.8374 19.5195 11.5867 20.2961 11.1208 20.9425C10.6549 21.5889 9.99747 22.0723 9.24156 22.3243C8.48565 22.5762 7.66962 22.584 6.90906 22.3464C6.14851 22.1088 5.48199 21.638 5.00392 21.0005C3.48536 20.2412 2.72608 18.7227 2.72608 17.2041C2.71455 16.6347 2.83127 16.0701 3.06759 15.5519C3.30392 15.0337 3.6538 14.5754 4.0913 14.2108C4.52881 13.8462 5.04274 13.5847 5.59502 13.4457C6.1473 13.3067 6.72378 13.2937 7.28175 13.4077V10.3706C5.79374 10.5629 4.385 11.1525 3.20358 12.0773C2.02217 13.0022 1.11171 14.2283 0.567903 15.6266C0.0240942 17.025 -0.132983 18.5441 0.113177 20.0241C0.359338 21.5042 0.999642 22.8906 1.9668 24.0376C3.21543 24.8506 4.65881 25.3148 6.14728 25.3821C7.63575 25.4493 9.11511 25.1171 10.4319 24.42C11.7488 23.7228 12.8551 22.6861 13.6363 21.4173C14.4175 20.1485 14.845 18.6938 14.8745 17.2041Z" fill="white"/>
</svg>
