<svg width="28" height="24" viewBox="0 0 28 24" fill="none" xmlns="http://www.w3.org/2000/svg">
<path d="M27.3085 3.34612L24.2742 4.10469L26.5499 1.07041L22.7571 2.58755C21.9715 1.55866 20.8371 0.852187 19.5672 0.600964C18.2972 0.34974 16.9793 0.571072 15.8611 1.22334C14.7429 1.87562 13.9015 2.9139 13.4951 4.14297C13.0887 5.37205 13.1453 6.70725 13.6542 7.89754C9.10283 7.13897 4.55141 5.62183 2.27571 1.82898C1.85544 2.41938 1.56047 3.08955 1.40896 3.79823C1.25745 4.50692 1.25261 5.23911 1.39473 5.94974C1.53686 6.66036 1.82294 7.33438 2.23537 7.93027C2.64779 8.52617 3.17783 9.03134 3.79284 9.41467L0.758569 8.65611C0.758569 11.6904 3.03428 13.2075 5.30998 13.9661C4.56033 14.1305 3.78393 14.1305 3.03428 13.9661C3.79284 16.2418 6.06855 17.7589 8.34426 17.7589C5.9708 19.5862 2.97253 20.404 0 20.0346C2.27571 21.5518 5.30998 23.0689 8.34426 23.0689C10.5016 23.0714 12.637 22.6356 14.6208 21.788C16.6047 20.9404 18.3958 19.6987 19.8853 18.1382C21.3749 16.5777 22.532 14.7309 23.2865 12.7097C24.0409 10.6886 24.3769 8.53529 24.2742 6.3804L27.3085 3.34612Z" fill="white"/>
</svg>
